<?xml version="1.0" standalone="no"?>
<!DOCTYPE svg PUBLIC "-//W3C//DTD SVG 20010904//EN"
 "http://www.w3.org/TR/2001/REC-SVG-20010904/DTD/svg10.dtd">
<svg version="1.0" xmlns="http://www.w3.org/2000/svg"
 width="256.000000pt" height="256.000000pt" viewBox="0 0 256.000000 256.000000"
 preserveAspectRatio="xMidYMid meet">
<metadata>
Created by potrace 1.14, written by Peter Selinger 2001-2017
</metadata>
<g transform="translate(0.000000,256.000000) scale(0.100000,-0.100000)"
fill="#000000" stroke="none">
<path d="M0 1280 l0 -1280 1280 0 1280 0 0 1280 0 1280 -1280 0 -1280 0 0
-1280z m720 1000 l0 -40 40 0 40 0 0 -40 0 -40 40 0 40 0 0 -200 0 -200 -120
0 -120 0 0 80 0 80 -40 0 -40 0 0 40 0 40 -40 0 -40 0 0 40 0 40 -40 0 -40 0
0 40 0 40 40 0 40 0 0 -40 0 -40 40 0 40 0 0 -40 0 -40 40 0 40 0 0 -40 0 -40
80 0 80 0 0 120 0 120 -40 0 -40 0 0 40 0 40 -40 0 -40 0 0 40 0 40 40 0 40 0
0 -40z m1120 0 l0 -40 -40 0 -40 0 0 40 0 40 40 0 40 0 0 -40z m0 -160 l0 -40
40 0 40 0 0 40 0 40 40 0 40 0 0 -40 0 -40 -40 0 -40 0 0 -40 0 -40 40 0 40 0
0 -40 0 -40 40 0 40 0 0 40 0 40 40 0 40 0 0 -40 0 -40 -40 0 -40 0 0 -40 0
-40 40 0 40 0 0 -40 0 -40 40 0 40 0 0 40 0 40 40 0 40 0 0 -40 0 -40 -40 0
-40 0 0 -40 0 -40 -40 0 -40 0 0 40 0 40 -40 0 -40 0 0 40 0 40 -40 0 -40 0 0
-400 0 -400 -40 0 -40 0 0 -40 0 -40 -40 0 -40 0 0 -40 0 -40 -40 0 -40 0 0
40 0 40 -40 0 -40 0 0 40 0 40 40 0 40 0 0 40 0 40 40 0 40 0 0 40 0 40 40 0
40 0 0 40 0 40 -40 0 -40 0 0 40 0 40 40 0 40 0 0 40 0 40 -40 0 -40 0 0 40 0
40 40 0 40 0 0 40 0 40 -40 0 -40 0 0 40 0 40 -40 0 -40 0 0 80 0 80 -80 0
-80 0 0 40 0 40 -40 0 -40 0 0 40 0 40 -120 0 -120 0 0 40 0 40 120 0 120 0 0
-40 0 -40 40 0 40 0 0 -40 0 -40 80 0 80 0 0 -40 0 -40 40 0 40 0 0 40 0 40
40 0 40 0 0 40 0 40 -40 0 -40 0 0 40 0 40 -40 0 -40 0 0 40 0 40 40 0 40 0 0
-40z m-1360 -400 l0 -40 -40 0 -40 0 0 40 0 40 40 0 40 0 0 -40z m480 -440 l0
-80 -80 0 -80 0 0 80 0 80 80 0 80 0 0 -80z m720 40 l0 -40 40 0 40 0 0 -40 0
-40 -40 0 -40 0 0 40 0 40 -40 0 -40 0 0 40 0 40 40 0 40 0 0 -40z m-80 -480
l0 -40 40 0 40 0 0 -40 0 -40 -40 0 -40 0 0 -40 0 -40 -40 0 -40 0 0 -40 0
-40 -40 0 -40 0 0 -40 0 -40 -40 0 -40 0 0 -40 0 -40 -40 0 -40 0 0 40 0 40
40 0 40 0 0 40 0 40 40 0 40 0 0 40 0 40 -40 0 -40 0 0 40 0 40 40 0 40 0 0
40 0 40 40 0 40 0 0 40 0 40 40 0 40 0 0 -40z"/>
<path d="M1840 1720 l0 -40 40 0 40 0 0 40 0 40 -40 0 -40 0 0 -40z"/>
<path d="M1840 1080 l0 -40 -40 0 -40 0 0 -40 0 -40 40 0 40 0 0 40 0 40 40 0
40 0 0 40 0 40 -40 0 -40 0 0 -40z"/>
<path d="M1520 760 l0 -40 -40 0 -40 0 0 -40 0 -40 40 0 40 0 0 40 0 40 40 0
40 0 0 40 0 40 -40 0 -40 0 0 -40z"/>
</g>
</svg>
