<svg xmlns="http://www.w3.org/2000/svg" viewBox="0 0 64 64"><g class="gotchi-bg"><defs fill="#fff"><pattern id="a" patternUnits="userSpaceOnUse" width="4" height="4"><path d="M0 0h1v1H0zm2 2h1v1H2z"/></pattern><pattern id="b" patternUnits="userSpaceOnUse" x="0" y="0" width="2" height="2"><path d="M0 0h1v1H0z"/></pattern><pattern id="c" patternUnits="userSpaceOnUse" x="-2" y="0" width="8" height="1"><path d="M0 0h1v1H0zm2 0h1v1H2zm2 0h1v1H4z"/></pattern><pattern id="d" patternUnits="userSpaceOnUse" x="0" y="0" width="4" height="4"><path d="M0 0h1v1H0zm0 2h1v1H0zm1 0V1h1v1zm1 0h1v1H2zm0-1h1V0H2zm1 2h1v1H3z"/></pattern><pattern id="e" patternUnits="userSpaceOnUse" width="64" height="32"><path d="M4 4h1v1H4zm7 0h1v1h-1zm7 0h1v1h-1zm7 0h1v1h-1zm7 0h1v1h-1zm7 0h1v1h-1zm7 0h1v1h-1zm7 0h1v1h-1zm7 0h1v1h-1z"/><path fill="url(#a)" d="M0 8h64v7H0z"/><path fill="url(#b)" d="M0 16h64v1H0z"/><path fill="url(#c)" d="M0 18h64v1H0z"/><path fill="url(#b)" d="M22 18h15v1H22zM0 20h64v3H0z"/><path fill="url(#d)" d="M0 24h64v8H0z"/></pattern><mask id="f"><path fill="url(#e)" d="M0 0h64v32H0z"/></mask></defs><path fill="#fff" d="M0 0h64v32H0z"/><path fill="#dea8ff" class="gotchi-secondary" mask="url(#f)" d="M0 0h64v32H0z"/><path fill="#dea8ff" class="gotchi-secondary" d="M0 32h64v32H0z"/><path mask="url(#f)" fill="#fff" transform="matrix(1 0 0 -1 0 64)" d="M0 0h64v32H0z"/></g><style>.gotchi-primary{fill:#B6509E;}.gotchi-secondary{fill:#CFEEF4;}.gotchi-cheek{fill:#F696C6;}.gotchi-eyeColor{fill:#EA8C27;}.gotchi-primary-mouth{fill:#B6509E;}.gotchi-sleeves-up{display:none;}.gotchi-handsUp{display:none;}.gotchi-handsDownOpen{display:block;}.gotchi-handsDownClosed{display:none;}
  .gotchi-bg {
    display:none;
  }


svg {
  animation-name:down;
  animation-duration:0.5s;
  animation-iteration-count: infinite;
  animation-timing-function: linear;
  animation-timing-function: steps(1);
}

.gotchi-shadow {
  animation: up 0.5s infinite linear steps(2);
   animation-name:up;
   animation-duration:0.5s;
   animation-iteration-count: infinite;
   animation-timing-function: linear;
   animation-timing-function: steps(2);
}

.gotchi-wearable {
  animation-name:down;
  animation-duration:0.5s;
  animation-iteration-count: infinite;
  animation-timing-function: linear;
  animation-timing-function: steps(1);
}




.gotchi-handsDownClosed, .gotchi-handsUp, .gotchi-handsDownOpen, .gotchi-handsDownClosed, .gotchi-body, .gotchi-eyeColor, .gotchi-collateral, .gotchi-cheek, .gotchi-primary-mouth, .gotchi-wearable, .gotchi-sleeves   {
   animation-name:down;
   animation-duration:0.5s;
   animation-iteration-count: infinite;
   animation-timing-function: linear;
   animation-timing-function: steps(2);
}

.wearable-hand {
  animation-name:down !important;
  animation-duration:0.5s;
  animation-iteration-count: infinite;
  animation-timing-function: linear;
  animation-timing-function: steps(2);
}

.wearable-bg {
  animation-name:none !important;
}


@keyframes downHands {
  from {
    --hand_translateY: -4px;
  }
 to {
    --hand_translateY: -3.5px;
  }
}


@keyframes up {
  from {
    transform: translate(0px, 0);
  }
 to {
    transform: translate(0px, -1px);
  }
}


@keyframes down {
 from {
   transform: translate(0px, 0);
    }
 to {
      transform: translate(0px, 1px);
    }
}
</style><g class="gotchi-body"><path d="M47 14v-2h-2v-2h-4V8h-4V6H27v2h-4v2h-4v2h-2v2h-2v41h4v-2h5v2h5v-2h6v2h5v-2h5v2h4V14z" class="gotchi-primary"/><path d="M45 14v-2h-4v-2h-4V8H27v2h-4v2h-4v2h-2v39h2v-2h5v2h5v-2h6v2h5v-2h5v2h2V14z" class="gotchi-secondary"/><path d="M18,49h2v-1h2v1h2v2h5v-2h2v-1h2v1h2v2h5v-2h2v-1h2v1h1V14h-4v-2h-4v-2h-5V9h-5v2h-4v2h-4v2h-1V49z" fill="#fff"/></g><path class="gotchi-cheek" d="M21 32v2h2v-2h-1zm21 0h-1v2h2v-2z"/><g class="gotchi-primary-mouth"><path d="M29 32h-2v2h2v-1z"/><path d="M33 34h-4v2h6v-2h-1z"/><path d="M36 32h-1v2h2v-2z"/></g><g class="gotchi-shadow"><path opacity=".25" d="M25 58H19v1h1v1h24V59h1V58h-1z" fill="#000"/></g>,<g class="gotchi-collateral" fill="#a73796"><path d="M30.5 15h1v-2h-1z"/><path d="M31.5 12h1v1h-1z"/><path d="M33.5 13h-1v2h1zm-4 3h-2v1h1v2h1v-2h2v-1h-1v-1h-1z"/><path d="M34.5 15h-1v2h1z"/><path d="M35.5 17h-1v2h1zm-8 4h1v-2h-1z"/><path d="M35.5 19v2h1v-2z"/></g><g class="gotchi-eyeColor"><path d="M28 22H27V21H26H25H24H23V22H22V23H21V24V25V26V27H22V28H23V29H24H25H26H27V28H28V27H29V26V25V24V23H28V22Z" /><path d="M42 23V22H41V21H40H39H38H37V22H36V23H35V24V25V26V27H36V28H37V29H38H39H40H41V28H42V27H43V26V25V24V23H42Z" /></g><g class="gotchi-wearable wearable-body"><svg x="7" y="29"><path d="M41 0v1h-1v1h-1v1h-1v1h-1v1h-1v1h-1v1h-2v1h-1v1h-1v1h-1v1h-1v1h-1v1h-6v-1h-1v-1h-1v-1h-1V9h-1V8h-1V7h-2V6h-1V5h-1V4h-1V3h-1V2h-1V1H9V0H7.5v12H8v14h4v-1h5v1h5v-1h6v1h5v-1h5v1h4V12h.5V0H41z" fill="#2a2a2a"/><g fill="#303030"><path d="M18 19h1v1h-1v-1zm0 2h1v1h-1v-1zm0-4h1v1h-1v-1zm-2 1h1v1h-1v-1zm2-3h1v1h-1v-1zm0 8h1v1h-1v-1zm-2-7h1v1h-1v-1zm4 2h1v1h-1v-1zm9 6h1v1h-1v-1zm-9-8h1v1h-1v-1zm9 6h1v1h-1v-1zm-9 2h1v1h-1v-1zm0-4h1v1h-1v-1zm0 2h1v1h-1v-1zm-8 0h1v1h-1v-1zm-2-7h1v1h-1v-1zm19 5h1v1h-1v-1zm-19-3h1v1h-1v-1zm2 3h1v1h-1v-1zm-2-1h1v1h-1v-1zm0 4h1v1h-1v-1zm0-2h1v1h-1v-1zm4 2h1v1h-1v-1zm0-6h1v1h-1v-1zm0 2h1v1h-1v-1zm0-4h1v1h-1v-1zm2 7h1v1h-1v-1zm-4-6h1v1h-1v-1zm2 5h1v1h-1v-1zm-2-3h1v1h-1v-1zm4 2h1v1h-1v-1zm21 2h1v1h-1v-1zm0-2h1v1h-1v-1zm-2 1h1v1h-1v-1zm0-2h1v1h-1v-1zm0-2h1v1h-1v-1zm2 1h1v1h-1v-1zm-2-3h1v1h-1v-1zm2 1h1v1h-1v-1zm2 3h1v1h-1v-1zm0-4h1v1h-1v-1zm-10 3h1v1h-1v-1zm10 5h1v1h-1v-1zm0-2h1v1h-1v-1zm0-4h1v1h-1v-1zm-10-1h1v1h-1v-1zm2 1h1v1h-1v-1zm0-2h1v1h-1v-1zm0 8h1v1h-1v-1zm0-4h1v1h-1v-1zm0 2h1v1h-1v-1zm2 1h1v1h-1v-1zm0-5h1v2h-1v-2zm2 6h1v1h-1v-1zm-2-3h1v1h-1v-1zm-23-9h1v1h-1v-1zm30-8h1v1h-1V3zM10 13h1v1h-1v-1zm29 0h1v1h-1v-1zm0-2h1v1h-1v-1zm-17 4h1v2h-1v1h1v7h4v-7h1v-1h-1v-2h1v-2h-6v2zm-10-1h1v1h-1v-1zm23-1h1v1h-1v-1zm-21 0h1v1h-1v-1zm19 1h1v2h-1v-2zm4-2h1v1h-1v-1zm-21 2h1v1h-1v-1zm-4-2h1v1h-1v-1zm25 2h1v1h-1v-1zM9 3h1v1H9V3z"/><path d="M41 2h1v1h-1V2zM8 2h1v1H8V2z"/></g><g fill="#414040"><path d="M24,23h1v1h-1V23z"/><path d="M25,22h1v1h-1V22z"/><path d="M24,21h1v1h-1V21z"/><path d="M25,20h1v1h-1V20z"/><path d="M24,19h1v1h-1V19z"/><path d="M25,18h1v1h-1V18z"/><path d="M24,17h1v1h-1V17z"/><path d="M25,16h1v1h-1V16z"/><path d="M24 15h1v1h-1v-1zm2-1h1v1h-1v-1z"/><path d="M23 14h1v1h-1v-1zm5-2h1v1h-1v-1z"/><path d="M21 12h1v1h-1v-1zm8-1h1v1h-1v-1z"/><path d="M20 11h1v1h-1v-1zm10-1h1v1h-1v-1z"/><path d="M19 10h1v1h-1v-1zm12-1h1v1h-1V9z"/><path d="M18 9h1v1h-1V9zm14-1h1v1h-1V8z"/><path d="M17 8h1v1h-1V8zm16-1h2v1h-2V7z"/><path d="M15 7h2v1h-2V7zm20-1h1v1h-1V6z"/><path d="M14 6h1v1h-1V6zm22-1h1v1h-1V5z"/><path d="M13 5h1v1h-1V5zm24-1h1v1h-1V4z"/><path d="M12 4h1v1h-1V4zm26-1h1v1h-1V3z"/><path d="M11 3h1v1h-1V3zm28-1h1v1h-1V2z"/><path d="M10 2h1v1h-1V2zm30-1h1v1h-1V1z"/><path d="M9 1h1v1H9V1zm32-1h1v1h-1V0z"/><path d="M8,0h1v1H8V0z"/></g><path d="M34,16h1v1h-1V16z" fill="#ecd3fc"/><g fill="#de37e4"><path d="M34,17h1v1h-1V17z"/><path d="M35 16h1v1h-1v-1zm-2 0h1v1h-1v-1z"/><path d="M34 15h1v1h-1v-1zm-10-1h2v1h-2v-1z"/></g>,</svg></g><g class="gotchi-handsDownClosed"><g class="gotchi-primary"><path d="M19 42h1v1h-1zm1-6h1v1h-1z"/><path d="M21 37h1v1h-1zm5 3v4h1v-4zm-5 3h-1v1h2v-1z"/><path d="M24 44h-2v1h4v-1h-1zm1-5h-1v1h2v-1z"/><path d="M23 38h-1v1h2v-1z"/></g><g class="gotchi-secondary"><path d="M19 43h1v1h-1zm5 2h-2v1h4v-1h-1z"/><path d="M27 41v3h1v-3zm-6 3h-1v1h2v-1z"/><path d="M26 44h1v1h-1zm-7-3h-1v2h1v-1z"/></g><g class="gotchi-primary"><path d="M44 42h1v1h-1zm-1-6h1v1h-1z"/><path d="M42 37h1v1h-1z"/><path d="M42 39v-1h-2v1h1zm0 4v1h2v-1h-1z"/><path d="M40 44h-2v1h4v-1h-1z"/><path d="M38 42v-2h-1v4h1v-1z"/><path d="M40 40v-1h-2v1h1z"/></g><g class="gotchi-secondary"><path d="M42 44v1h2v-1h-1zm-5-2v-1h-1v3h1v-1z"/><path d="M40 45h-2v1h4v-1h-1z"/><path d="M37 44h1v1h-1zm7-1h1v1h-1z"/></g></g><g class="gotchi-handsDownOpen"><g class="gotchi-primary"><path d="M56 38v-1h-2v-1h-2v-1h-1v-1h-1v-1h-1v8h1v1h2v1h4v-1h1v-4z"/></g><g class="gotchi-secondary"><path d="M54 38v-1h-2v-1h-1v-1h-1v-1h-1v6h1v1h2v1h4v-4z" /></g><path d="M54,38v-1h-2v-1h-1v-1h-1v-1h-1v5h1v1h2v1h4v-3H54z" fill="#fff"/><g class="gotchi-primary"><path d="M8 38v-1h2v-1h2v-1h1v-1h1v-1h1v8h-1v1h-2v1H8v-1H7v-4z"/></g><g class="gotchi-secondary"><path d="M10 38v-1h2v-1h1v-1h1v-1h1v6h-1v1h-2v1H8v-4z" /></g><path d="M8,38v3h4v-1h2v-1h1v-5h-1v1h-1v1h-1v1h-2v1H8z" fill="#fff"/></g><g class="gotchi-handsUp"><g class="gotchi-secondary"><path d="M50,38h1v1h-1V38z"/><path d="M49 39h1v1h-1v-1zm2-2h1v1h-1v-1z"/><path d="M52,36h2v1h-2V36z"/><path d="M54,35h2v1h-2V35z"/></g><path d="M52,32v1h-2v1h-1v5h1v-1h1v-1h1v-1h2v-1h2v-3H52z" fill="#fff"/><g class="gotchi-primary"><path d="M49,33h1v1h-1V33z"/><path d="M50 32h2v1h-2v-1zm0 7h1v1h-1v-1z"/><path d="M49 40h1v1h-1v-1zm2-2h1v1h-1v-1z"/><path d="M52 37h2v1h-2v-1zm0-6h4v1h-4v-1z"/><path d="M56,32h1v4h-1V32z"/><path d="M54,36h2v1h-2V36z"/></g><g class="gotchi-secondary"><path d="M13,38h1v1h-1V38z"/><path d="M14 39h1v1h-1v-1zm-2-2h1v1h-1v-1z"/><path d="M10,36h2v1h-2V36z"/><path d="M8,35h2v1H8V35z"/></g><path d="M8,32v3h2v1h2v1h1v1h1v1h1v-5h-1v-1h-2v-1H8z" fill="#fff"/><g class="gotchi-primary"><path d="M14,33h1v1h-1V33z"/><path d="M12 32h2v1h-2v-1zm1 7h1v1h-1v-1z"/><path d="M14 40h1v1h-1v-1zm-2-2h1v1h-1v-1z"/><path d="M10 37h2v1h-2v-1zm-2-6h4v1H8v-1z"/><path d="M7,32h1v4H7V32z"/><path d="M8,36h2v1H8V36z"/></g></g><g class="gotchi-wearable wearable-face"><svg x="15" y="19"><g fill="#7d0064"><path d="M36 6h2v2h-2z"/><path d="M38 4V0h-2v2h-2v2h-4V3h-2V2h-2V1h-4v1h-2v1h-2v1h-2V3h-2V2h-2V1H8v1H6v1H4v1H0v6h4v1h2v1h2v1h4v-1h2v-1h2v-1h2v1h2v1h2v1h4v-1h2v-1h2v-1h4V6h2V4z"/></g><path d="M30 5V4h-2V3h-2V2h-4v1h-2v1h-2v1h-2V4h-2V3h-2V2H8v1H6v1H4v1H0v4h4v1h2v1h2v1h4v-1h2v-1h2V9h2v1h2v1h2v1h4v-1h2v-1h2V9h4V5h-4z" fill="#a73796"/><g fill="#7d0064"><path d="M26,2v1h2V2H26z"/><path d="M28 3v1h2V3h-2zm-6-2v1h4V1h-4z"/><path d="M20 2v1h2V2h-2zm-8 0v1h2V2h-2z"/><path d="M8,1v1h4V1H8z"/><path d="M6,2v1h2V2H6z"/><path d="M4,3v1h2V3H4z"/><path d="M0 4v1h4V4H0zm16 0v1h2V4h-2z"/><path d="M14 3v1h2V3h-2zm4 0v1h2V3h-2zM8 12v1h4v-1H8z"/><path d="M6,11v1h2v-1H6z"/><path d="M4,10v1h2v-1H4z"/><path d="M0 9v1h4V9H0zm12 2v1h2v-1h-2zm8 0v1h2v-1h-2z"/><path d="M22,12v1h4v-1H22z"/><path d="M26,11v1h2v-1H26z"/><path d="M28,10v1h2v-1H28z"/><path d="M30 9v1h4V9h-4zm-16 1v1h2v-1h-2z"/><path d="M16,9v1h2V9H16z"/><path d="M18 10v1h2v-1h-2zm18-2h2V6h-2v2z"/><path d="M36,0v2h-2v2h-4v1h4v1h2V4h2V0H36z"/></g><path d="M26 6V5h-1V4h-2v1h-1v1h-1v2h1v1h1v1h2V9h1V8h1V6z" fill="#fff"/><path d="M23 6h2v2h-2z" fill="#7d0064"/><path d="M12 5h-1V4H9v1H8v1H7v2h1v1h1v1h2V9h1V8h1V6h-1z" fill="#fff"/><path d="M9 6h2v2H9z" fill="#7d0064"/></svg></g><g class="gotchi-wearable wearable-eyes"><svg x="15" y="22"><path d="M32,0H2v2H0v4h2v2h30V6h2V2h-2V0z" fill="#c8c8c8"/><path d="M2,2h30v4H2V2z"/><path d="M26,2v4h2V2H26z" fill="#c260ff"/></svg></g><g class="gotchi-wearable wearable-head"><svg x="11" y="0"><path d="M42 14v-4h-2V8h-2V6h-2V4h-2V2h-4V0H18v2h-4v2h-2v2h-2v2H8v2H6v4H4v4H2v2H0v2h42v-2h-2v-2h-2v-4h-2v-2h-2v-2h4v2h2v2z" fill="#3a2b77"/><g fill="#b135ff"><path d="M4 18v2h34v-2H4zm32-2v-2h-4v-2h-2v-2h2V8h4V6h-2V4h-4V2H18v2h-4v2h-2v2h-2v2H8v4H6v2h30z"/><path d="M20 15.9h3V18h-3z"/></g><path d="M25 9V8h-1V7h-1V5h-1V4h-1v1h-1v2h-1v1h-1v1h-1v1h1v1h1v1h1v2h1v1h1v-1h1v-2h1v-1h1v-1h1V9z" fill="#47289b"/><path d="M20,11h3v1h-3V11z" fill="#cb5bff"/><path d="M22,8h2v1h-2V8z" fill="#6f16e2"/><g fill="#3a2b77"><path d="M22 10h1v1h-1v-1zm0-5h1v2h-1V5z"/><path d="M23 7h1v1h-1V7zm2 2h1v1h-1V9z"/><path d="M24 8h1v1h-1V8zm0 2h1v1h-1v-1zm-6-2h1v1h-1V8zm0 2h1v1h-1v-1zm2 4h1v-2h-1v2z"/><path d="M19,11h1v1h-1V11z"/></g><path d="M21,9h3v1h-3V9z" fill="#f37aff"/><path d="M22,7h1v2h-1V7z" fill="#5d24bf"/><g fill="#8000ff"><path d="M20 10h2v1h-2v-1zm2-3h1v1h-1V7z"/><path d="M21,11h1v3h-1V11z"/></g><g fill="#b135ff"><path d="M21,9h1v2h-1V9z"/><path d="M22,11h1v1h-1V11z"/><path d="M23,9h1v2h-1V9z"/></g><path d="M20 7v1h-1v2h3V7z" fill="#ffa3ff"/><path d="M20,8h1v2h-1V8z" fill="#ffc9ff"/><path d="M19 9.5h1V11h-1V9.5zm4-.5v1h2V9h-2z" fill="#cb5bff"/><path d="M21 5h1v5h-1z" fill="#fff"/><path d="M18 9h4v1h-4z" fill="#ffc9ff"/><path d="M20 9h1v1h-1z" fill="#fff"/><path d="M20 16h1v1h-1z" fill="#f37aff"/><path d="M20 17h1v1h-1z" fill="#ffc9ff"/><path d="M21 16h1v1h-1z" fill="#fff"/><path d="M21 17h1v1h-1z" fill="#5d24bf"/><path d="M22 16h1v1h-1z" fill="#8000ff"/><path d="M22 17h1v1h-1z" fill="#b135ff"/></svg></g>"><svg x="7" y="29"><g><g class="gotchi-sleeves gotchi-sleeves-left gotchi-sleeves-up"><path d="M49,3V2h-4V1h-1V0h-2.5v12H43v-1h1v-1h1V9h2V8h2V7h1V3H49z" fill="#2a2a2a"/><g fill="#414040"><path d="M47 3v1h1v1h-6V4h4V3h1z"/><path d="M45,2h1v1h-1V2z"/><path d="M44,1h1v1h-1V1z"/><path d="M41.5,0H44v1h-2.5V0z"/></g><g fill="#303030"><path d="M46,5h1v1h-1V5z"/><path d="M45 6h1v1h-1V6zm-3-3h1v1h-1V3z"/><path d="M41.5,2H44v1h-2.5V2z"/><path d="M42 1h1v1h-1V1zm2 2h1v1h-1V3z"/></g><path d="M48 5h1v1h-1V5zm-6-3h1v1h-1V2z" fill="#de37e4"/></g><g class="gotchi-sleeves gotchi-sleeves-left gotchi-sleeves-down"><path d="M44,0v1h1v1h1v1h1v1h1v1h-4v1h1v1h2v1h2v1h1v4h-1v1h-4v-1h-2v-1h-1.5V0H44z" fill="#2a2a2a"/><g fill="#de37e4"><path d="M47 13h-1v-1h1v1z"/><path d="M48 12h-1v-1h1v1z"/></g><g fill="#303030"><path d="M46 12h-1v-1h1v1z"/><path d="M47 11h-1v-1h1v1z"/><path d="M46 10h-1V9h1v1zm-3-6h-1V3h1v1zm2 0h-1V3h1v1z"/><path d="M44,3h-2.5V2H44V3z"/><path d="M43,2h-1V1h1V2z"/></g><g fill="#414040"><path d="M46,3v1h-4v1h6V4h-1V3H46z"/><path d="M46,3h-1V2h1V3z"/><path d="M45,2h-1V1h1V2z"/><path d="M44,1h-2.5V0H44V1z"/></g><path d="M49 11h-1v-1h1v1zm-6-8h-1V2h1v1z" fill="#de37e4"/></g><g class="gotchi-sleeves gotchi-sleeves-right gotchi-sleeves-up"><path d="M0,3v4h1v1h2v1h2v1h1v1h1v1h1.5V0H6v1H5v1H1v1H0z" fill="#2a2a2a"/><g fill="#414040"><path d="M4,3v1h4v1H2V4h1V3H4z"/><path d="M5,3H4V2h1V3z"/><path d="M6,2H5V1h1V2z"/><path d="M8.5,1H6V0h2.5V1z"/></g><g fill="#303030"><path d="M4,6H3V5h1V6z"/><path d="M5 7H4V6h1v1zm3-3H7V3h1v1z"/><path d="M8.5,3H6V2h2.5V3z"/><path d="M8 2H7V1h1v1zM6 4H5V3h1v1z"/></g><path d="M2 6H1V5h1v1zm6-3H7V2h1v1z" fill="#de37e4"/></g><g class="gotchi-sleeves gotchi-sleeves-right gotchi-sleeves-down"><path d="M8.5,0v12H7v1H5v1H1v-1H0V9h1V8h2V7h2V6h1V5H2V4h1V3h1V2h1V1h1V0H8.5z" fill="#2a2a2a"/><g fill="#de37e4"><path d="M3,12h1v1H3V12z"/><path d="M2,11h1v1H2V11z"/></g><g fill="#303030"><path d="M4,11h1v1H4V11z"/><path d="M3,10h1v1H3V10z"/><path d="M4 9h1v1H4V9zm3-6h1v1H7V3zM5 3h1v1H5V3z"/><path d="M6,2h2.5v1H6V2z"/><path d="M7,1h1v1H7V1z"/></g><g fill="#414040"><path d="M3,3v1H2v1h6V4H4V3H3z"/><path d="M4,2h1v1H4V2z"/><path d="M5,1h1v1H5V1z"/><path d="M6,0h2.5v1H6V0z"/></g><path d="M1 10h1v1H1v-1zm6-8h1v1H7V2z" fill="#de37e4"/></g></g></svg><g class="gotchi-wearable wearable-hand wearable-hand-left"><svg x="6" y="22"><path d="M8 5V4H7V3H6V1H5V0H4v1H3v2H2v1H1v1H0v1h1v1h1v1h1v2h1v23h1V10h1V8h1V7h1V6h1V5z" fill="#47289b"/><path d="M3,7h3v1H3V7z" fill="#cb5bff"/><path d="M5,4h2v1H5V4z" fill="#6f16e2"/><g fill="#3a2b77"><path d="M5 6h1v1H5V6zm0-5h1v2H5V1z"/><path d="M6 3h1v1H6V3zm2 2h1v1H8V5z"/><path d="M7 4h1v1H7V4zm0 2h1v1H7V6zM1 4h1v1H1V4zm0 2h1v1H1V6zm2 4h1V8H3v2z"/><path d="M2,7h1v1H2V7z"/></g><path d="M4,5h3v1H4V5z" fill="#f37aff"/><path d="M5,3h1v2H5V3z" fill="#5d24bf"/><g fill="#8000ff"><path d="M3 6h2v1H3V6zm2-3h1v1H5V3z"/><path d="M4,7h1v3H4V7z"/></g><g fill="#b135ff"><path d="M4,5h1v2H4V5z"/><path d="M5,7h1v1H5V7z"/><path d="M6,5h1v2H6V5z"/></g><path d="M3 3v1H2v2h3V3z" fill="#ffa3ff"/><path d="M3,4h1v2H3V4z" fill="#ffc9ff"/><path d="M2 5.5h1V7H2V5.5zM6 5v1h2V5H6z" fill="#cb5bff"/><path d="M4 1h1v5H4z" fill="#fff"/><path d="M1 5h4v1H1z" fill="#ffc9ff"/><path d="M3 5h1v1H3z" fill="#fff"/></svg></g><g class="gotchi-wearable wearable-hand wearable-hand-right"><svg x="0" y="24"><g transform="scale(-1, 1) translate(-64, 0)"><path d="M0 9v2h5v1h1v1h1v1h1v1H5v2h1v1h1v1h1v1h1v1h1v1h1v1h1v1h1v1h1v1h2v-4h-1v-1h-1v-1h-1v-1h-1v-1h4v-2h-1v-1h-1v-1h-1v-1h-1v-1h-1v-1h4v-1h-1V9h-1V8h-1V7h-1V6h-1V5H9V4H8V3H7V2H6V1H5V0H3v3H2v3H1v3H0z" fill="#0082ff"/><path d="M1 9v1h4v1h1v1h1v1h1v1h1v1h1v1H6v1h1v1h1v1h1v1h1v1h1v1h1v1h1v1h1v1h1v-3h-1v-1h-1v-1h-1v-1h-1v-2h4v-1h-1v-1h-1v-1h-1v-1h-1v-1h-1v-1H9v-1h4V9h-1V8h-1V7h-1V6H9V5H8V4H7V3H6V2H5V1H4v2H3v3H2v3H1z" fill="#aed7ff"/><g fill="#d2e9ff"><path d="M13 10h-1V9h1v1z"/><path d="M12,9h-1V8h1V9z"/><path d="M11,8h-1V7h1V8z"/><path d="M10,7H9V6h1V7z"/><path d="M9 6H8V5h1v1zm3 8h-1v-1h1v1z"/><path d="M13 15h-1v-1h1v1z"/><path d="M14 16h-1v-1h1v1z"/><path d="M15 17h-1v-1h1v1zM8 5H7V4h1v1zm2 7H9v-1h1v1z"/><path d="M11 13h-1v-1h1v1zm0 4h-1v1 1h1v-1-1z"/><path d="M12 20h-1v-1h1v1z"/><path d="M13 21h-1v-1h1v1z"/><path d="M14 22h-1v-1h1v1z"/><path d="M15 23h-1v-1h1v1zM7 4H6V3h1v1z"/><path d="M6,3H5V2h1V3z"/><path d="M5,2H4V1h1V2z"/></g><g fill="#6bb6ff"><path d="M10 15H9v-1h1v1zm-3 2H6v-1h1v1z"/><path d="M8 18H7v-1h1v1z"/><path d="M9 19H8v-1h1v1zm2 2h-1v-1h1v1z"/><path d="M12 22h-1v-1h1v1z"/><path d="M13 23h-1v-1h1v1z"/><path d="M14 24h-1v-1h1v1zm-4-4H9v-1h1v1zm-4-9H5v-1h1v1z"/><path d="M7 12H6v-1h1v1z"/><path d="M8 13H7v-1h1v1z"/><path d="M9 14H8v-1h1v1zm-7-4H1V9h1v1zm1-4h1V3H3v1 2z"/><path d="M2 9h1V6H2v1 2zm13 16h-1v-1h1v1z"/></g></g></svg></g></svg>