<svg xmlns="http://www.w3.org/2000/svg" viewBox="0 0 64 64"><g class="gotchi-bg"><defs fill="#fff"><pattern id="a" patternUnits="userSpaceOnUse" width="4" height="4"><path d="M0 0h1v1H0zm2 2h1v1H2z"/></pattern><pattern id="b" patternUnits="userSpaceOnUse" x="0" y="0" width="2" height="2"><path d="M0 0h1v1H0z"/></pattern><pattern id="c" patternUnits="userSpaceOnUse" x="-2" y="0" width="8" height="1"><path d="M0 0h1v1H0zm2 0h1v1H2zm2 0h1v1H4z"/></pattern><pattern id="d" patternUnits="userSpaceOnUse" x="0" y="0" width="4" height="4"><path d="M0 0h1v1H0zm0 2h1v1H0zm1 0V1h1v1zm1 0h1v1H2zm0-1h1V0H2zm1 2h1v1H3z"/></pattern><pattern id="e" patternUnits="userSpaceOnUse" width="64" height="32"><path d="M4 4h1v1H4zm7 0h1v1h-1zm7 0h1v1h-1zm7 0h1v1h-1zm7 0h1v1h-1zm7 0h1v1h-1zm7 0h1v1h-1zm7 0h1v1h-1zm7 0h1v1h-1z"/><path fill="url(#a)" d="M0 8h64v7H0z"/><path fill="url(#b)" d="M0 16h64v1H0z"/><path fill="url(#c)" d="M0 18h64v1H0z"/><path fill="url(#b)" d="M22 18h15v1H22zM0 20h64v3H0z"/><path fill="url(#d)" d="M0 24h64v8H0z"/></pattern><mask id="f"><path fill="url(#e)" d="M0 0h64v32H0z"/></mask></defs><path fill="#fff" d="M0 0h64v32H0z"/><path fill="#dea8ff" class="gotchi-secondary" mask="url(#f)" d="M0 0h64v32H0z"/><path fill="#dea8ff" class="gotchi-secondary" d="M0 32h64v32H0z"/><path mask="url(#f)" fill="#fff" transform="matrix(1 0 0 -1 0 64)" d="M0 0h64v32H0z"/></g><style>.gotchi-primary{fill:#FF5E00;}.gotchi-secondary{fill:#FFCAA2;}.gotchi-cheek{fill:#F696C6;}.gotchi-eyeColor{fill:#36818E;}.gotchi-primary-mouth{fill:#FF5E00;}.gotchi-sleeves-up{display:none;}.gotchi-handsUp{display:none;}.gotchi-handsDownOpen{display:block;}.gotchi-handsDownClosed{display:none;}
  .gotchi-bg {
    display:none;
  }


svg {
  animation-name:down;
  animation-duration:0.5s;
  animation-iteration-count: infinite;
  animation-timing-function: linear;
  animation-timing-function: steps(1);
}

.gotchi-shadow {
  animation: up 0.5s infinite linear steps(2);
   animation-name:up;
   animation-duration:0.5s;
   animation-iteration-count: infinite;
   animation-timing-function: linear;
   animation-timing-function: steps(2);
}

.gotchi-wearable {
  animation-name:down;
  animation-duration:0.5s;
  animation-iteration-count: infinite;
  animation-timing-function: linear;
  animation-timing-function: steps(1);
}




.gotchi-handsDownClosed, .gotchi-handsUp, .gotchi-handsDownOpen, .gotchi-handsDownClosed, .gotchi-body, .gotchi-eyeColor, .gotchi-collateral, .gotchi-cheek, .gotchi-primary-mouth, .gotchi-wearable, .gotchi-sleeves   {
   animation-name:down;
   animation-duration:0.5s;
   animation-iteration-count: infinite;
   animation-timing-function: linear;
   animation-timing-function: steps(2);
}

.wearable-hand {
  animation-name:down !important;
  animation-duration:0.5s;
  animation-iteration-count: infinite;
  animation-timing-function: linear;
  animation-timing-function: steps(2);
}

.wearable-bg {
  animation-name:none !important;
}


@keyframes downHands {
  from {
    --hand_translateY: -4px;
  }
 to {
    --hand_translateY: -3.5px;
  }
}


@keyframes up {
  from {
    transform: translate(0px, 0);
  }
 to {
    transform: translate(0px, -1px);
  }
}


@keyframes down {
 from {
   transform: translate(0px, 0);
    }
 to {
      transform: translate(0px, 1px);
    }
}
</style><g class="gotchi-body"><path d="M47 14v-2h-2v-2h-4V8h-4V6H27v2h-4v2h-4v2h-2v2h-2v41h4v-2h5v2h5v-2h6v2h5v-2h5v2h4V14z" class="gotchi-primary"/><path d="M45 14v-2h-4v-2h-4V8H27v2h-4v2h-4v2h-2v39h2v-2h5v2h5v-2h6v2h5v-2h5v2h2V14z" class="gotchi-secondary"/><path d="M18,49h2v-1h2v1h2v2h5v-2h2v-1h2v1h2v2h5v-2h2v-1h2v1h1V14h-4v-2h-4v-2h-5V9h-5v2h-4v2h-4v2h-1V49z" fill="#fff"/></g><path class="gotchi-cheek" d="M21 32v2h2v-2h-1zm21 0h-1v2h2v-2z"/><g class="gotchi-primary-mouth"><path d="M29 32h-2v2h2v-1z"/><path d="M33 34h-4v2h6v-2h-1z"/><path d="M36 32h-1v2h2v-2z"/></g><g class="gotchi-shadow"><path opacity=".25" d="M25 58H19v1h1v1h24V59h1V58h-1z" fill="#000"/></g>,<g class="gotchi-collateral"><path d="M30 11v1h4v-1h-4z"/><path d="M29 12h1v1h-1zm7.5 2.5v4h1v-4h-1zm-10 4h1v-4h-1v4z"/><path d="M27.5 13.5h1v1h-1zm8 5h1v1h-1zm0-5h1v1h-1zM34 12h1v1h-1zm-5 8h1v1h-1zm-1.5-1.5h1v1h-1zM34 20h1v1h-1z"/><path d="M30 21v1h4v-1h-4z"/><g fill="#ff5e00"><path d="M32.5 16h-1v-1h2v-1h-1v-1h-1v1h-2v1h1v3h-1v1h2v1h1v-1h1v-1h-2v-1h2v-1h-1z"/><path d="M33.5 17h1v1h-1zm0-2h1v1h-1z"/></g></g><g class="gotchi-eyeColor"><path d="M27 23H26H25H24H23H22H21V24V25H22H23H24H25H26H27H28H29V24V23H28H27Z" class="gotchi-primary" /><path d="M42 23H41H40H39H38H37H36H35V24V25H36H37H38H39H40H41H42H43V24V23H42Z" class="gotchi-primary" /><rect x="24" y="23" width="2" height="2" /> <rect x="38" y="23" width="2" height="2" /></g><g class="gotchi-wearable wearable-body"><svg x="12" y="33"><path d="M3,0v20h34V0h-2v1h-1v1h-1v1h-1v1h-1v1h-1v1h-8v1h-4V6h-8V5H9V4H8V3H7V2H6V1H5V0H3z" fill="#7d7d7d"/><path d="M35,2h-1v1h-1v1h-1v1h-1v1h-1v1h-8v1h-4V7h-8V6H9V5H8V4H7V3H6V2H5V1H4v18h32V1h-1V2z"/><g fill="#f90"><path d="M22.2 8.6h.6v.6h-.6v-.6z"/><path d="M20.9 11.7h.7v-1.3h.6V9.2h-.6v.6h-.7v.6h-.6v.7h-.6v.6h-.6v.6h-.6v.6h-.6v.6h-.6v.6h1.8v1.2h-.6v1.3h-.6v1.2h.6v-.6h.6v-.6h.6v-.7h.6v-.6h.6v-.6h.7v-.6h.6v-.6h.6v-.6h-1.9v-1.2z"/><path d="M17.3 17.8h.6v.6h-.6v-.6z"/></g><path d="M32 8v2h-1V8h-1v5h1v-2h1v2h1V8h-1zm-5 6h-1v5.1h3V14h-2zm1 2v2h-1v-3h1v1zm-1-8h-1v3h2v1h-2v1h3v-3h-2V9h2V8h-2zm4 6h-1v1h1v4.1h1V15h1v-1h-2zm-19 0h-1v5.1h1V17h2v-3h-2zm1 2h-1v-1h1v1zm-1-8h-1v5h1V9h1v4h1V8h-2zM8 8H7v3h2v1H7v1h3v-3H8V9h2V8H8zm0 6H7v5.1h1V17h1v2.1h1V14H8zm1 2H8v-1h1v1z" fill="#7d7d7d"/><defs /></svg></g><g class="gotchi-handsDownClosed"><g class="gotchi-primary"><path d="M19 42h1v1h-1zm1-6h1v1h-1z"/><path d="M21 37h1v1h-1zm5 3v4h1v-4zm-5 3h-1v1h2v-1z"/><path d="M24 44h-2v1h4v-1h-1zm1-5h-1v1h2v-1z"/><path d="M23 38h-1v1h2v-1z"/></g><g class="gotchi-secondary"><path d="M19 43h1v1h-1zm5 2h-2v1h4v-1h-1z"/><path d="M27 41v3h1v-3zm-6 3h-1v1h2v-1z"/><path d="M26 44h1v1h-1zm-7-3h-1v2h1v-1z"/></g><g class="gotchi-primary"><path d="M44 42h1v1h-1zm-1-6h1v1h-1z"/><path d="M42 37h1v1h-1z"/><path d="M42 39v-1h-2v1h1zm0 4v1h2v-1h-1z"/><path d="M40 44h-2v1h4v-1h-1z"/><path d="M38 42v-2h-1v4h1v-1z"/><path d="M40 40v-1h-2v1h1z"/></g><g class="gotchi-secondary"><path d="M42 44v1h2v-1h-1zm-5-2v-1h-1v3h1v-1z"/><path d="M40 45h-2v1h4v-1h-1z"/><path d="M37 44h1v1h-1zm7-1h1v1h-1z"/></g></g><g class="gotchi-handsDownOpen"><g class="gotchi-primary"><path d="M56 38v-1h-2v-1h-2v-1h-1v-1h-1v-1h-1v8h1v1h2v1h4v-1h1v-4z"/></g><g class="gotchi-secondary"><path d="M54 38v-1h-2v-1h-1v-1h-1v-1h-1v6h1v1h2v1h4v-4z" /></g><path d="M54,38v-1h-2v-1h-1v-1h-1v-1h-1v5h1v1h2v1h4v-3H54z" fill="#fff"/><g class="gotchi-primary"><path d="M8 38v-1h2v-1h2v-1h1v-1h1v-1h1v8h-1v1h-2v1H8v-1H7v-4z"/></g><g class="gotchi-secondary"><path d="M10 38v-1h2v-1h1v-1h1v-1h1v6h-1v1h-2v1H8v-4z" /></g><path d="M8,38v3h4v-1h2v-1h1v-5h-1v1h-1v1h-1v1h-2v1H8z" fill="#fff"/></g><g class="gotchi-handsUp"><g class="gotchi-secondary"><path d="M50,38h1v1h-1V38z"/><path d="M49 39h1v1h-1v-1zm2-2h1v1h-1v-1z"/><path d="M52,36h2v1h-2V36z"/><path d="M54,35h2v1h-2V35z"/></g><path d="M52,32v1h-2v1h-1v5h1v-1h1v-1h1v-1h2v-1h2v-3H52z" fill="#fff"/><g class="gotchi-primary"><path d="M49,33h1v1h-1V33z"/><path d="M50 32h2v1h-2v-1zm0 7h1v1h-1v-1z"/><path d="M49 40h1v1h-1v-1zm2-2h1v1h-1v-1z"/><path d="M52 37h2v1h-2v-1zm0-6h4v1h-4v-1z"/><path d="M56,32h1v4h-1V32z"/><path d="M54,36h2v1h-2V36z"/></g><g class="gotchi-secondary"><path d="M13,38h1v1h-1V38z"/><path d="M14 39h1v1h-1v-1zm-2-2h1v1h-1v-1z"/><path d="M10,36h2v1h-2V36z"/><path d="M8,35h2v1H8V35z"/></g><path d="M8,32v3h2v1h2v1h1v1h1v1h1v-5h-1v-1h-2v-1H8z" fill="#fff"/><g class="gotchi-primary"><path d="M14,33h1v1h-1V33z"/><path d="M12 32h2v1h-2v-1zm1 7h1v1h-1v-1z"/><path d="M14 40h1v1h-1v-1zm-2-2h1v1h-1v-1z"/><path d="M10 37h2v1h-2v-1zm-2-6h4v1H8v-1z"/><path d="M7,32h1v4H7V32z"/><path d="M8,36h2v1H8V36z"/></g></g><g class="gotchi-wearable wearable-head"><svg x="7" y="4"><path d="M41 8V7h-1V6h-1V5h-1V4h-1V3h-1V2h-3V1h-7V0h-2v1h-7v1h-3v1h-1v1h-1v1h-1v1h-1v1H9v1H8v7H0v2h42V8z" fill="#7d7d7d"/><path d="M40 8V7h-1V6h-1V5h-1V4h-1V3h-3V2h-6v1h1v1h1v1h1v1h1v1h1v1h1v8h8V8zM19 7V6h1V5h1V4h1V3h1V2h-6v1h-3v1h-1v1h-1v1h-1v1h-1v1H9v8h8V8h1V7z"/><path d="M31 7h-1V6h-1V5h-1V4h-1V3h-1V2h-2v1h-1v1h-1v1h-1v1h-1v1h-1v1h-1v8h14V8h-1z"/><g fill="#f90"><path d="M26.8 5.2h.6v.6h-.6z"/><path d="M25.6 8.3h.6V7.1h.6V5.8h-.6v.6h-.6v.7h-.7v.6h-.6v.6h-.6v.6h-.6v.6h-.6v.6h-.6v.6h1.8v1.2h-.6v1.3h-.6v1.2h.6v-.6h.6v-.6h.6v-.6h.6v-.7h.7v-.6h.6v-.6h.6v-.6h.6v-.6h-1.8v-.6z"/><path d="M21.9 14.4h.6v.6h-.6z"/></g></svg></g>"><svg x="12" y="33"><g><g class="gotchi-sleeves gotchi-sleeves-left gotchi-sleeves-up"><path d="M37,9h1V8h1V7h1V0h-2v1h-1V9z" fill="#7d7d7d"/><path d="M38 7h1V1h-1v1h-1v6h1z"/><defs /></g><g class="gotchi-sleeves gotchi-sleeves-left gotchi-sleeves-down"><path d="M37 8h1v1h2V2h-1V1h-1V0h-1v8z" fill="#7d7d7d"/><path d="M38 1h-1v6h1v1h1V2h-1z"/><defs /></g><g class="gotchi-sleeves gotchi-sleeves-right gotchi-sleeves-up"><path d="M3 1H2V0H0v7h1v1h1v1h1V1z" fill="#7d7d7d"/><path d="M2 8h1V2H2V1H1v6h1z"/><defs /></g><g class="gotchi-sleeves gotchi-sleeves-right gotchi-sleeves-down"><path d="M3,0H2v1H1v1H0v7h2V8h1V0z" fill="#7d7d7d"/><path d="M2 2H1v6h1V7h1V1H2z"/><defs /></g></g></svg><g class="gotchi-wearable wearable-hand wearable-hand-left"><svg x="3" y="32"><path d="M18 6V4h-2V2h-2V0H6v2H4v2H2v2H0v8h2v2h2v2h2v2h8v-2h2v-2h2v-2h2V6z" fill="#0f5a87"/><path d="M16,6V4h-2V2H6v2H4v2H2v8h2v2h2v2h8v-2h2v-2h2V6H16z" fill="#0fa9c9"/><path d="M14 8V6h-2V4H8v2H6v2H4v4h2v2h2v2h4v-2h2v-2h2V8z" fill="#e6cce1"/><path d="M14 9V8h-1V7h-1V6h-1V5H9v1H8v1H7v1H6v1H5v2h1v1h1v1h1v1h1v1h2v-1h1v-1h1v-1h1v-1h1V9z" fill="#fff"/><g fill="#0f5a87"><path d="M9 7h2v1H9z"/><path d="M12 8h-1v2H9V8H8v2H7v1h1v2h1v-2h2v2h1v-2h1v-1h-1z"/></g></svg></g><g class="gotchi-wearable wearable-hand wearable-hand-right"><svg x="0" y="28"><g transform="scale(-1, 1) translate(-64, 0)"><path d="M14 13v-1h-1v-1h-1v-1h-1V9h-1V8H9V7H8V6h3V4h-1V3H9V2H8V1H7V0H5v3H3v2H0v2h1v1h1v1h1v1h1v1h2V8h1v1h1v1h1v1h1v1h1v1h1v1h1v1h2v-2h-1z" fill="#240f0a"/><g fill="#3b2924"><path d="M4 4h1v1H4z"/><path d="M5 5h1v1H5z"/><path d="M6 6h1v1H6z"/><path d="M7 7h1v1H7z"/><path d="M8 8h1v1H8z"/><path d="M9 9h1v1H9z"/><path d="M10 10h1v1h-1z"/><path d="M11 11h1v1h-1z"/><path d="M12 12h1v1h-1z"/><path d="M13 13h1v1h-1z"/></g><path d="M5 6H4V5H3v1H1v1h1v1h1v1h1v1h1V8h1V7H5V6zm4-2V3H8V2H7V1H6v2H5v1h1v1h1v1h1V5h2V4H9z" fill="#f6f6f6"/><path d="M8 4V3H7V2H6v1H5v1h1v1h1v1h1V5h1V4zM5 6H4V5H3v1H2v1h1v1h1v1h1V8h1V7H5z" fill="#828282"/></g></svg></g></svg>