<svg xmlns="http://www.w3.org/2000/svg" viewBox="0 0 64 64"><g class="gotchi-bg"><defs fill="#fff"><pattern id="a" patternUnits="userSpaceOnUse" width="4" height="4"><path d="M0 0h1v1H0zm2 2h1v1H2z"/></pattern><pattern id="b" patternUnits="userSpaceOnUse" x="0" y="0" width="2" height="2"><path d="M0 0h1v1H0z"/></pattern><pattern id="c" patternUnits="userSpaceOnUse" x="-2" y="0" width="8" height="1"><path d="M0 0h1v1H0zm2 0h1v1H2zm2 0h1v1H4z"/></pattern><pattern id="d" patternUnits="userSpaceOnUse" x="0" y="0" width="4" height="4"><path d="M0 0h1v1H0zm0 2h1v1H0zm1 0V1h1v1zm1 0h1v1H2zm0-1h1V0H2zm1 2h1v1H3z"/></pattern><pattern id="e" patternUnits="userSpaceOnUse" width="64" height="32"><path d="M4 4h1v1H4zm7 0h1v1h-1zm7 0h1v1h-1zm7 0h1v1h-1zm7 0h1v1h-1zm7 0h1v1h-1zm7 0h1v1h-1zm7 0h1v1h-1zm7 0h1v1h-1z"/><path fill="url(#a)" d="M0 8h64v7H0z"/><path fill="url(#b)" d="M0 16h64v1H0z"/><path fill="url(#c)" d="M0 18h64v1H0z"/><path fill="url(#b)" d="M22 18h15v1H22zM0 20h64v3H0z"/><path fill="url(#d)" d="M0 24h64v8H0z"/></pattern><mask id="f"><path fill="url(#e)" d="M0 0h64v32H0z"/></mask></defs><path fill="#fff" d="M0 0h64v32H0z"/><path fill="#dea8ff" class="gotchi-secondary" mask="url(#f)" d="M0 0h64v32H0z"/><path fill="#dea8ff" class="gotchi-secondary" d="M0 32h64v32H0z"/><path mask="url(#f)" fill="#fff" transform="matrix(1 0 0 -1 0 64)" d="M0 0h64v32H0z"/></g><style>.gotchi-primary{fill:#000000;}.gotchi-secondary{fill:#FBDFEB;}.gotchi-cheek{fill:#F696C6;}.gotchi-eyeColor{fill:#000000;}.gotchi-primary-mouth{fill:#000000;}.gotchi-sleeves-up{display:none;}.gotchi-handsUp{display:none;}.gotchi-handsDownOpen{display:block;}.gotchi-handsDownClosed{display:none;}
  .gotchi-bg {
    display:none;
  }


svg {
  animation-name:down;
  animation-duration:0.5s;
  animation-iteration-count: infinite;
  animation-timing-function: linear;
  animation-timing-function: steps(1);
}

.gotchi-shadow {
  animation: up 0.5s infinite linear steps(2);
   animation-name:up;
   animation-duration:0.5s;
   animation-iteration-count: infinite;
   animation-timing-function: linear;
   animation-timing-function: steps(2);
}

.gotchi-wearable {
  animation-name:down;
  animation-duration:0.5s;
  animation-iteration-count: infinite;
  animation-timing-function: linear;
  animation-timing-function: steps(1);
}




.gotchi-handsDownClosed, .gotchi-handsUp, .gotchi-handsDownOpen, .gotchi-handsDownClosed, .gotchi-body, .gotchi-eyeColor, .gotchi-collateral, .gotchi-cheek, .gotchi-primary-mouth, .gotchi-wearable, .gotchi-sleeves   {
   animation-name:down;
   animation-duration:0.5s;
   animation-iteration-count: infinite;
   animation-timing-function: linear;
   animation-timing-function: steps(2);
}

.wearable-hand {
  animation-name:down !important;
  animation-duration:0.5s;
  animation-iteration-count: infinite;
  animation-timing-function: linear;
  animation-timing-function: steps(2);
}

.wearable-bg {
  animation-name:none !important;
}


@keyframes downHands {
  from {
    --hand_translateY: -4px;
  }
 to {
    --hand_translateY: -3.5px;
  }
}


@keyframes up {
  from {
    transform: translate(0px, 0);
  }
 to {
    transform: translate(0px, -1px);
  }
}


@keyframes down {
 from {
   transform: translate(0px, 0);
    }
 to {
      transform: translate(0px, 1px);
    }
}
</style><g class="gotchi-body"><path d="M47 14v-2h-2v-2h-4V8h-4V6H27v2h-4v2h-4v2h-2v2h-2v41h4v-2h5v2h5v-2h6v2h5v-2h5v2h4V14z" class="gotchi-primary"/><path d="M45 14v-2h-4v-2h-4V8H27v2h-4v2h-4v2h-2v39h2v-2h5v2h5v-2h6v2h5v-2h5v2h2V14z" class="gotchi-secondary"/><path d="M18,49h2v-1h2v1h2v2h5v-2h2v-1h2v1h2v2h5v-2h2v-1h2v1h1V14h-4v-2h-4v-2h-5V9h-5v2h-4v2h-4v2h-1V49z" fill="#fff"/></g><path class="gotchi-cheek" d="M21 32v2h2v-2h-1zm21 0h-1v2h2v-2z"/><g class="gotchi-primary-mouth"><path d="M29 32h-2v2h2v-1z"/><path d="M33 34h-4v2h6v-2h-1z"/><path d="M36 32h-1v2h2v-2z"/></g><g class="gotchi-shadow"><path opacity=".25" d="M25 58H19v1h1v1h24V59h1V58h-1z" fill="#000"/></g>,<g class="gotchi-collateral"><path d="M35.5 20h1v-1h1v-5h-1v-1h-1v-1h-1v-1h-5v1h-1v1h-1v1h-1v5h1v1h1v1h1v1h5v-1h1v-1zm0-2h-1v1h-4v-1h-1v-3h1v-1h4v1h1v3z"/><path d="M28.5 15h1v-1h1v-1h3v-1h-4v1h-1v1h-1v5h1v1h1v1h4v-1h-3v-1h-1v-1h-1v-3z" fill="#e51b6d"/></g><g class="gotchi-eyeColor"><path d="M27 23H26H25H24H23H22H21V24V25V26H22H23H24H25H26H27H28H29V25V24V23H28H27ZM23 25H22V24H23H24V25H23ZM28 25H27H26V24H27H28V25Z" class="gotchi-primary" /><rect x="24" y="24" width="2" height="1" /><path d="M42 23H41H40H39H38H37H36H35V24V25V26H36H37H38H39H40H41H42H43V25V24V23H42ZM37 25H36V24H37H38V25H37ZM42 25H41H40V24H41H42V25Z" class="gotchi-primary" /><rect x="38" y="24" width="2" height="1" /></g><g class="gotchi-wearable wearable-body"><svg x="12" y="31"><path d="M35 0v1h-3v2h-3v2h-3v1h-1v1H15V6h-1V5h-3V3H8V1H5V0H4L2.5 2v16H3v6h4v-1h5v1h5v-1h6v1h5v-1h5v1h4v-6h.5V2L36 0h-1z" fill="#4b2d00"/><g fill="#c8c4b7"><path d="M35 20h-1v1h2v-1h-1zM4 20v1h2v-1H4zm32-10h1v1h-1zm-3 0v1h2v-1h-2zm-3 2v1h2v-1h-2zm-3 2v1h2v-1h-2zm-2 8h1v1h-1zm0-2h1v1h-1zm0-2h1v1h-1zm0-2h1v1h-1zm-11 6h1v1h-1zm0-2h1v1h-1zm0-2h1v1h-1zm0-2h1v1h-1zm-3-2v1h2v-1h-2zm-3-2v1h2v-1H8zm-3-2v1h2v-1H5zm-2 0h1v1H3zm33-4h-2v2h-3v2h-3v2h-3v2h-2v2h1v-1h2v-2h3v-2h3V9h5V6h-1zm0 2h-1V7h1v1zM23 21h1v1h-1zm0-2h1v1h-1zm0-2h1v1h-1zm-7 4h1v1h-1zm0-2h1v1h-1zm0-2h1v1h-1zm-1-3v-2h-3v-2H9V8H6V6H3v3h5v2h3v2h3v2h2v1h1v-2h-2zM4 8V7h1v1H4zm31-6h-2v3h3V2h-1zm0 2h-1V3h1v1zm-7 2h-1v3h3V6h-2zm1 2h-1V7h1v1zm-7 2h-1v3h3v-3h-2zm1 2h-1v-1h1v1zm-3 9h-2v1h4v-1h-2zm0-4h-2v1h4v-1h-2zm-1-4v-3h-3v3h3zm-2-1v-1h1v1h-1z"/><path d="M11 6h-1v3h3V6h-2zm1 2h-1V7h1v1zM5 2H4v3h3V2H5zm1 2H5V3h1v1zm30-4v2h1.5V1H37V0h-1zm-2 22v1h2v-1h-2zM31 4h-1v3h3V4h-2zm1 2h-1V5h1v1zm-7 2h-1v3h3V8h-2zm1 2h-1V9h1v1zm-4-3h1v1h-1zm-1 7v1h-2v-2h-1v3h4v-3h-1v1z"/><path d="M21 8h1v1h-1zm-1 11h-2v1h4v-1h-2z"/><path d="M21 13v-1h-2v1h2zm-2-4v1h2V9h-2z"/><path d="M18 8h1v1h-1z"/><path d="M17 7h1v1h-1zm-3 1h-1v3h3V8h-2zm1 2h-1V9h1v1zM4 22v1h2v-1H4zM8 4H7v3h3V4H8zm1 2H8V5h1v1zM4 1V0H3v1h-.5v1H4z"/></g></svg></g><g class="gotchi-handsDownClosed"><g class="gotchi-primary"><path d="M19 42h1v1h-1zm1-6h1v1h-1z"/><path d="M21 37h1v1h-1zm5 3v4h1v-4zm-5 3h-1v1h2v-1z"/><path d="M24 44h-2v1h4v-1h-1zm1-5h-1v1h2v-1z"/><path d="M23 38h-1v1h2v-1z"/></g><g class="gotchi-secondary"><path d="M19 43h1v1h-1zm5 2h-2v1h4v-1h-1z"/><path d="M27 41v3h1v-3zm-6 3h-1v1h2v-1z"/><path d="M26 44h1v1h-1zm-7-3h-1v2h1v-1z"/></g><g class="gotchi-primary"><path d="M44 42h1v1h-1zm-1-6h1v1h-1z"/><path d="M42 37h1v1h-1z"/><path d="M42 39v-1h-2v1h1zm0 4v1h2v-1h-1z"/><path d="M40 44h-2v1h4v-1h-1z"/><path d="M38 42v-2h-1v4h1v-1z"/><path d="M40 40v-1h-2v1h1z"/></g><g class="gotchi-secondary"><path d="M42 44v1h2v-1h-1zm-5-2v-1h-1v3h1v-1z"/><path d="M40 45h-2v1h4v-1h-1z"/><path d="M37 44h1v1h-1zm7-1h1v1h-1z"/></g></g><g class="gotchi-handsDownOpen"><g class="gotchi-primary"><path d="M56 38v-1h-2v-1h-2v-1h-1v-1h-1v-1h-1v8h1v1h2v1h4v-1h1v-4z"/></g><g class="gotchi-secondary"><path d="M54 38v-1h-2v-1h-1v-1h-1v-1h-1v6h1v1h2v1h4v-4z" /></g><path d="M54,38v-1h-2v-1h-1v-1h-1v-1h-1v5h1v1h2v1h4v-3H54z" fill="#fff"/><g class="gotchi-primary"><path d="M8 38v-1h2v-1h2v-1h1v-1h1v-1h1v8h-1v1h-2v1H8v-1H7v-4z"/></g><g class="gotchi-secondary"><path d="M10 38v-1h2v-1h1v-1h1v-1h1v6h-1v1h-2v1H8v-4z" /></g><path d="M8,38v3h4v-1h2v-1h1v-5h-1v1h-1v1h-1v1h-2v1H8z" fill="#fff"/></g><g class="gotchi-handsUp"><g class="gotchi-secondary"><path d="M50,38h1v1h-1V38z"/><path d="M49 39h1v1h-1v-1zm2-2h1v1h-1v-1z"/><path d="M52,36h2v1h-2V36z"/><path d="M54,35h2v1h-2V35z"/></g><path d="M52,32v1h-2v1h-1v5h1v-1h1v-1h1v-1h2v-1h2v-3H52z" fill="#fff"/><g class="gotchi-primary"><path d="M49,33h1v1h-1V33z"/><path d="M50 32h2v1h-2v-1zm0 7h1v1h-1v-1z"/><path d="M49 40h1v1h-1v-1zm2-2h1v1h-1v-1z"/><path d="M52 37h2v1h-2v-1zm0-6h4v1h-4v-1z"/><path d="M56,32h1v4h-1V32z"/><path d="M54,36h2v1h-2V36z"/></g><g class="gotchi-secondary"><path d="M13,38h1v1h-1V38z"/><path d="M14 39h1v1h-1v-1zm-2-2h1v1h-1v-1z"/><path d="M10,36h2v1h-2V36z"/><path d="M8,35h2v1H8V35z"/></g><path d="M8,32v3h2v1h2v1h1v1h1v1h1v-5h-1v-1h-2v-1H8z" fill="#fff"/><g class="gotchi-primary"><path d="M14,33h1v1h-1V33z"/><path d="M12 32h2v1h-2v-1zm1 7h1v1h-1v-1z"/><path d="M14 40h1v1h-1v-1zm-2-2h1v1h-1v-1z"/><path d="M10 37h2v1h-2v-1zm-2-6h4v1H8v-1z"/><path d="M7,32h1v4H7V32z"/><path d="M8,36h2v1H8V36z"/></g></g><g class="gotchi-wearable wearable-head"><svg x="14" y="1"><path d="M35 14v-1h-1v-1h-1v-1h-1v-1h-1V8h2V4h2V2h-6v2h-2v2h-2V5h-2V4h-1V3h-1V2h-1V1h-1V0h-2v1h-1v1h-1v1h-1v1h-1v1h-2v1H8v1H7v1H6v1H5v1H4v1H3v1H2v1H1v1H0v5h16v1h1v1h2v-1h1v-1h16v-5h-1z" fill="#321227"/><g fill="#376560"><path d="M23 16v1h-1v1h13v-3H24v1h-1zm-10 0h-1v-1H1v3h13v-1h-1v-1z"/><path d="M29 2v2h-2v2h-4V5h-1V4h-1V3h-1V2h-1V1h-2v1h-1v1h-1v1h-1v1h-1v1h-2v1H8v1H7v1H6v1H5v1H4v1H3v1H2v1h10v1h1v1h1v1h1v1h1v1h1v1h2v-1h1v-1h1v-1h1v-1h1v-1h1v-1h10v-1h-1v-1h-1v-1h-1V8h2V4h2V2h-6z"/></g><path d="M12 16h-1v-1H2v3h11v-1h-1v-1zm11-2h1v-1h8v-1h-1v-1h-1v-1h-1V9h-1V8h-3V7h-2V6h-1V5h-1V4h-1V3h-1V2h-2v1h-1v1h-1v1h-1v1h-1v1h-2v1H8v1H7v1H6v1H5v1H4v1h8v1h1v1h1v1h1v1h1v1h1v1h2v-1h1v-1h1v-1h1v-1h1v-1zm2 1v1h-1v1h-1v1h11v-3h-9z" fill="#6ca958"/><path d="M29 2v2h-2v2h-2v4h6V8h2V4h2V2h-6z" fill="#960000"/><path d="M21 8V7h-1V6h-1V5h-2v1h-1v1h-1v1h-1v4h1v1h1v1h1v1h2v-1h1v-1h1v-1h1V8h-1z" fill="#376560"/><path d="M20 8V7h-1V6h-2v1h-1v1h-1v4h1v1h1v1h2v-1h1v-1h1V8h-1z" fill="#99c38b"/><path d="M18 10v4h1v-1h1v-1h1v-2h-3z" fill="#80b46d"/><path d="M15 10v2h1v1h1v1h1v-4h-3z" fill="#68a552"/><path d="M17 6v1h-1v1h-1v2h3V6h-1z" fill="#b2d2a7"/><path d="M29 4v2h-2v2h4V4h-2z" fill="red"/></svg></g>"><svg x="12" y="31"><g><g class="gotchi-sleeves gotchi-sleeves-left gotchi-sleeves-up"><path d="M38 1h2v10h-1v4h-1v3h-1V1h1z" fill="#4b2d00"/><path d="M36.8 0H38v1h-1.2zm.2 2v4h1V5h2V1h-1v1h-2zm1 1h1v1h-1V3z" fill="#c8c4b7"/></g><g class="gotchi-sleeves gotchi-sleeves-left gotchi-sleeves-down"><path d="M38 2h1v2h1v10h-1v2h-1v3h-1V2h1z" fill="#4b2d00"/><path d="M36.5 1H38v1h-1.5zM39 3v1h-1v1h1V4h1v2h-3V3h2z" fill="#c8c4b7"/></g><g class="gotchi-sleeves gotchi-sleeves-right gotchi-sleeves-up"><path d="M2 1H0v10h1v4h1v3h1V1H2z" fill="#4b2d00"/><path d="M2 0h1.5v1H2zM1 2V1H0v4h2v1h1V2H1zm1 2H1V3h1v1z" fill="#c8c4b7"/></g><g class="gotchi-sleeves gotchi-sleeves-right gotchi-sleeves-down"><path d="M2 2H1v2H0v10h1v2h1v3h1V2H2z" fill="#4b2d00"/><path d="M2 1h1.5v1H2zM1 3v1h1v1H1V4H0v2h3V3H1z" fill="#c8c4b7"/></g></g></svg><g class="gotchi-wearable wearable-hand wearable-hand-left"><svg x="0" y="25"><g fill="#321227"><path d="M9 2h1v1H9z"/><path d="M8 3h1v1H8z"/><path d="M8 4H7v2h1V4z"/><path d="M7 6H6v2h1V6zm2 21h1v1H9z"/><path d="M8 26h1v1H8z"/><path d="M8 24H7v2h1v-2z"/><path d="M7 22H6v2h1v-2z"/><path d="M12 12h1v-1h-1V0h-1v1h-1v1h1v9H6V8H5v3H3v-1H1v1H0v1h1v1h2v-1h2v6H3v-1H1v1H0v1h1v1h2v-1h2v3h1v-3h5v9h-1v1h1v1h1V19h1v-1h-1v-6zm-1 6H6v-6h5v6z"/><path d="M3 13h1v1H3zm0-4h1v1H3zm0 11h1v1H3zm0-4h1v1H3z"/></g><path d="M11 17h1v-4h-1v4zm0-14v7h1V3h-1zm0 24h1v-7h-1v7zm0-15v-1H2v1h9zm0 6H2v1h9v-1z" fill="#b49698"/></svg></g><g class="gotchi-wearable wearable-hand wearable-hand-right"><svg x="0" y="25"><g transform="scale(-1, 1) translate(-64, 0)"><g fill="#321227"><path d="M9 2h1v1H9z"/><path d="M8 3h1v1H8z"/><path d="M8 4H7v2h1V4z"/><path d="M7 6H6v2h1V6zm2 21h1v1H9z"/><path d="M8 26h1v1H8z"/><path d="M8 24H7v2h1v-2z"/><path d="M7 22H6v2h1v-2z"/><path d="M12 12h1v-1h-1V0h-1v1h-1v1h1v9H6V8H5v3H3v-1H1v1H0v1h1v1h2v-1h2v6H3v-1H1v1H0v1h1v1h2v-1h2v3h1v-3h5v9h-1v1h1v1h1V19h1v-1h-1v-6zm-1 6H6v-6h5v6z"/><path d="M3 13h1v1H3zm0-4h1v1H3zm0 11h1v1H3zm0-4h1v1H3z"/></g><path d="M11 17h1v-4h-1v4zm0-14v7h1V3h-1zm0 24h1v-7h-1v7zm0-15v-1H2v1h9zm0 6H2v1h9v-1z" fill="#b49698"/></g></svg></g></svg>