<svg xmlns="http://www.w3.org/2000/svg" viewBox="0 0 64 64"><g class="gotchi-bg"><defs fill="#fff"><pattern id="a" patternUnits="userSpaceOnUse" width="4" height="4"><path d="M0 0h1v1H0zm2 2h1v1H2z"/></pattern><pattern id="b" patternUnits="userSpaceOnUse" x="0" y="0" width="2" height="2"><path d="M0 0h1v1H0z"/></pattern><pattern id="c" patternUnits="userSpaceOnUse" x="-2" y="0" width="8" height="1"><path d="M0 0h1v1H0zm2 0h1v1H2zm2 0h1v1H4z"/></pattern><pattern id="d" patternUnits="userSpaceOnUse" x="0" y="0" width="4" height="4"><path d="M0 0h1v1H0zm0 2h1v1H0zm1 0V1h1v1zm1 0h1v1H2zm0-1h1V0H2zm1 2h1v1H3z"/></pattern><pattern id="e" patternUnits="userSpaceOnUse" width="64" height="32"><path d="M4 4h1v1H4zm7 0h1v1h-1zm7 0h1v1h-1zm7 0h1v1h-1zm7 0h1v1h-1zm7 0h1v1h-1zm7 0h1v1h-1zm7 0h1v1h-1zm7 0h1v1h-1z"/><path fill="url(#a)" d="M0 8h64v7H0z"/><path fill="url(#b)" d="M0 16h64v1H0z"/><path fill="url(#c)" d="M0 18h64v1H0z"/><path fill="url(#b)" d="M22 18h15v1H22zM0 20h64v3H0z"/><path fill="url(#d)" d="M0 24h64v8H0z"/></pattern><mask id="f"><path fill="url(#e)" d="M0 0h64v32H0z"/></mask></defs><path fill="#fff" d="M0 0h64v32H0z"/><path fill="#dea8ff" class="gotchi-secondary" mask="url(#f)" d="M0 0h64v32H0z"/><path fill="#dea8ff" class="gotchi-secondary" d="M0 32h64v32H0z"/><path mask="url(#f)" fill="#fff" transform="matrix(1 0 0 -1 0 64)" d="M0 0h64v32H0z"/></g><style>.gotchi-primary{fill:#FF5E00;}.gotchi-secondary{fill:#FFCAA2;}.gotchi-cheek{fill:#F696C6;}.gotchi-eyeColor{fill:#5D24BF;}.gotchi-primary-mouth{fill:#FF5E00;}.gotchi-sleeves-up{display:none;}.gotchi-handsUp{display:none;}.gotchi-handsDownOpen{display:block;}.gotchi-handsDownClosed{display:none;}
  .gotchi-bg {
    display:none;
  }


svg {
  animation-name:down;
  animation-duration:0.5s;
  animation-iteration-count: infinite;
  animation-timing-function: linear;
  animation-timing-function: steps(1);
}

.gotchi-shadow {
  animation: up 0.5s infinite linear steps(2);
   animation-name:up;
   animation-duration:0.5s;
   animation-iteration-count: infinite;
   animation-timing-function: linear;
   animation-timing-function: steps(2);
}

.gotchi-wearable {
  animation-name:down;
  animation-duration:0.5s;
  animation-iteration-count: infinite;
  animation-timing-function: linear;
  animation-timing-function: steps(1);
}




.gotchi-handsDownClosed, .gotchi-handsUp, .gotchi-handsDownOpen, .gotchi-handsDownClosed, .gotchi-body, .gotchi-eyeColor, .gotchi-collateral, .gotchi-cheek, .gotchi-primary-mouth, .gotchi-wearable, .gotchi-sleeves   {
   animation-name:down;
   animation-duration:0.5s;
   animation-iteration-count: infinite;
   animation-timing-function: linear;
   animation-timing-function: steps(2);
}

.wearable-hand {
  animation-name:down !important;
  animation-duration:0.5s;
  animation-iteration-count: infinite;
  animation-timing-function: linear;
  animation-timing-function: steps(2);
}

.wearable-bg {
  animation-name:none !important;
}


@keyframes downHands {
  from {
    --hand_translateY: -4px;
  }
 to {
    --hand_translateY: -3.5px;
  }
}


@keyframes up {
  from {
    transform: translate(0px, 0);
  }
 to {
    transform: translate(0px, -1px);
  }
}


@keyframes down {
 from {
   transform: translate(0px, 0);
    }
 to {
      transform: translate(0px, 1px);
    }
}
</style><g class="gotchi-body"><path d="M47 14v-2h-2v-2h-4V8h-4V6H27v2h-4v2h-4v2h-2v2h-2v41h4v-2h5v2h5v-2h6v2h5v-2h5v2h4V14z" class="gotchi-primary"/><path d="M45 14v-2h-4v-2h-4V8H27v2h-4v2h-4v2h-2v39h2v-2h5v2h5v-2h6v2h5v-2h5v2h2V14z" class="gotchi-secondary"/><path d="M18,49h2v-1h2v1h2v2h5v-2h2v-1h2v1h2v2h5v-2h2v-1h2v1h1V14h-4v-2h-4v-2h-5V9h-5v2h-4v2h-4v2h-1V49z" fill="#fff"/></g><path class="gotchi-cheek" d="M21 32v2h2v-2h-1zm21 0h-1v2h2v-2z"/><g class="gotchi-primary-mouth"><path d="M29 32h-2v2h2v-1z"/><path d="M33 34h-4v2h6v-2h-1z"/><path d="M36 32h-1v2h2v-2z"/></g><g class="gotchi-shadow"><path opacity=".25" d="M25 58H19v1h1v1h24V59h1V58h-1z" fill="#000"/></g>,<g class="gotchi-collateral"><path d="M30 11v1h4v-1h-4z"/><path d="M29 12h1v1h-1zm7.5 2.5v4h1v-4h-1zm-10 4h1v-4h-1v4z"/><path d="M27.5 13.5h1v1h-1zm8 5h1v1h-1zm0-5h1v1h-1zM34 12h1v1h-1zm-5 8h1v1h-1zm-1.5-1.5h1v1h-1zM34 20h1v1h-1z"/><path d="M30 21v1h4v-1h-4z"/><g fill="#ff5e00"><path d="M32.5 16h-1v-1h2v-1h-1v-1h-1v1h-2v1h1v3h-1v1h2v1h1v-1h1v-1h-2v-1h2v-1h-1z"/><path d="M33.5 17h1v1h-1zm0-2h1v1h-1z"/></g></g><g class="gotchi-eyeColor"><path d="M23 22h-1v1h1v-1zm0 5h-1v1h1v-1zm5-5h-1v1h1v-1zm0 5h-1v1h1v-1zm14 0h-1v1h1v-1zm0-5h-1v1h1v-1zm-5 0h-1v1h1v-1zm0 5h-1v1h1v-1z" class="gotchi-primary" /><g><path d="M25 26h-1v1h1v-1zm2-1h-1v1h1v-1zm-3-1h-1v1h1v-1z" /><path d="M25 23h-1v1h1v-1z" /><path d="M25 24h-1v1h1v-1zm2 0h-1v1h1v-1zm-1 2h-1v1h1v-1z" /><path d="M25 25h-1v1h1v-1z" /><path d="M26 25h-1v1h1v-1zm-2 0h-1v1h1v-1zm2-2h-1v1h1v-1z" /><path d="M26 24h-1v1h1v-1zm13 2h-1v1h1v-1zm2-1h-1v1h1v-1zm-3-1h-1v1h1v-1z" /><path d="M39 24h-1v1h1v-1z" /><path d="M38 23h1v1h-1m0 1h-1v1h1v-1zm2 1h-1v1h1v-1z" /><path d="M40 25h-1v1h1v-1z" /><path d="M39 25h-1v1h1v-1zm2-1h-1v1h1v-1z" /><path d="M40 23h-1v1h1v-1z" /><path d="M40 24h-1v1h1v-1z" /></g></g><g class="gotchi-wearable wearable-body"><svg x="12" y="32"><style><![CDATA[.O{fill:#369c2e}.P{fill:#5fb935}.Q{fill:#368528}.R{fill:#a322d4}.S{fill:#2234cb}.T{fill:#f122ad}.U{fill:#0e982e}.V{fill:#e8dc21}.W{fill:#d322e8}.X{fill:#36a72e}.Y{fill:#1ce4a3}.Z{fill:#6822bc}.a{fill:#8a22b4}.b{fill:#18742e}]]></style><path d="M35 1v1h-2v1h-2v1h-2v1h-2v1h-1v1h-1v1h-1v1h-1v1h-1v1h-1v1h-2v-1h-1v-1h-1V9h-1V8h-1V7h-1V6h-1V5h-2V4H9V3H7V2H5V1H3v18h34V1z" fill="#1ca4b4"/><path d="M35 2v1h-2v1h-2v1h-2v1h-2v1h-1v1h-1v1h-1v1h-1v1h-1v1h-2v1h1v1h-1v1h1v1h-1v1h1v1h15V9h1V2h-2zm-8 12v-1h1v1h-1zm6-4h-4V9h4v1zm-15 1h-1v-1h-1V9h-1V8h-1V7h-1V6h-2V5H9V4H7V3H5V2H3v7h1v9h15v-6h-1v-1zM7 10V9h4v1H7zm6 3v1h-1v-1h1z" fill="#20c7db"/><path d="M20,14h1v1h-1V14z" class="V"/><path d="M21 14h1v1h-1v-1zm0-2h1v1h-1v-1z" class="R"/><path d="M31,5h1v1h-1V5z" class="S"/><path d="M31,8h1v1h-1V8z" class="T"/><path d="M30,8h1v1h-1V8z" fill="#8a22a0"/><path d="M30,7h1v1h-1V7z" class="T"/><path d="M29,10h1v1h-1V10z" class="O"/><path d="M29,8h1v1h-1V8z" class="T"/><path d="M32,12h1v1h-1V12z" class="P"/><path d="M32,13h1v1h-1V13z" class="O"/><path d="M20,12h1v1h-1V12z" class="V"/><path d="M23,14h1v1h-1V14z" class="R"/><path d="M31,13h1v1h-1V13z" class="P"/><path d="M23,12h1v1h-1V12z" class="R"/><path d="M26,8h1v1h-1V8z" class="Q"/><path d="M22,13h1v1h-1V13z" fill="#f122a4"/><path d="M36,2h1v1h-1V2z" fill="#b782c2"/><path d="M33,3h1v1h-1V3z" class="S"/><path d="M35,11h1v1h-1V11z" fill="#1c62a3"/><path d="M35,14h1v1h-1V14z" class="W"/><g class="X"><path d="M35 7h1v1h-1V7zm0-2h1v1h-1V5z"/><path d="M36,6h1v1h-1V6z"/></g><path d="M31,11h1v1h-1V11z" class="P"/><path d="M25,9h1v1h-1V9z" class="Q"/><path d="M30,11h1v1h-1V11z" class="O"/><path d="M27,7h1v1h-1V7z" class="Q"/><path d="M34,12h1v1h-1V12z" class="Y"/><path d="M33,5h1v1h-1V5z" class="S"/><path d="M34,6h1v1h-1V6z" class="X"/><path d="M34,10h1v1h-1V10z" class="Y"/><path d="M30,12h1v1h-1V12z" class="P"/><path d="M24,10h1v1h-1V10z" class="Q"/><path d="M31,12h1v1h-1V12z" class="O"/><path d="M20,16h1v1h-1V16z" class="V"/><path d="M21,16h1v1h-1V16z" class="Z"/><path d="M26,16h1v1h-1V16z" class="U"/><path d="M32 15h1v1h-1v-1zm-2 0h1v1h-1v-1z" class="a"/><path d="M25,16h1v1h-1V16z" class="b"/><path d="M31,16h1v1h-1V16z" fill="#cec81c"/><path d="M35,15h1v1h-1V15z" fill="#ba911c"/><g class="W"><path d="M35,16h1v1h-1V16z"/><path d="M34,15h1v1h-1V15z"/></g><path d="M21,17h1v1h-1V17z" fill="#84861c"/><path d="M32 17h1v1h-1v-1zm-2 0h1v1h-1v-1z" class="a"/><path d="M25,17h1v1h-1V17z" class="U"/><path d="M22,17h1v1h-1V17z" class="Z"/><path d="M26,17h1v1h-1V17z" class="b"/><path d="M27,17h1v1h-1V17z" class="U"/><path d="M18 14h1v1h-1v-1zm0-2h1v1h-1v-1z" class="R"/><path d="M8,5h1v1H8V5z" class="S"/><path d="M8,8h1v1H8V8z" class="T"/><path d="M9,8h1v1H9V8z" fill="#8a22a0"/><path d="M9,7h1v1H9V7z" class="T"/><path d="M10,10h1v1h-1V10z" class="O"/><path d="M10,8h1v1h-1V8z" class="T"/><path d="M7,12h1v1H7V12z" class="P"/><path d="M7,13h1v1H7V13z" class="O"/><path d="M16,14h1v1h-1V14z" class="R"/><path d="M8,13h1v1H8V13z" class="P"/><path d="M16,12h1v1h-1V12z" class="R"/><path d="M13,8h1v1h-1V8z" class="Q"/><path d="M17,13h1v1h-1V13z" fill="#f122a4"/><path d="M3,2h1v1H3V2z" fill="#b782c2"/><path d="M6,3h1v1H6V3z" class="S"/><path d="M4,11h1v1H4V11z" fill="#1c62a3"/><path d="M4,14h1v1H4V14z" class="W"/><g class="X"><path d="M4 7h1v1H4V7zm0-2h1v1H4V5z"/><path d="M3,6h1v1H3V6z"/></g><path d="M8,11h1v1H8V11z" class="P"/><path d="M14,9h1v1h-1V9z" class="Q"/><path d="M9,11h1v1H9V11z" class="O"/><path d="M12,7h1v1h-1V7z" class="Q"/><path d="M5,12h1v1H5V12z" class="Y"/><path d="M6,5h1v1H6V5z" class="S"/><path d="M5,6h1v1H5V6z" class="X"/><g fill="#367f2e"><path d="M36,5h1v1h-1V5z"/><path d="M35,6h1v1h-1V6z"/><path d="M34 7h1v1h-1V7zM3 5h1v1H3V5z"/><path d="M4,6h1v1H4V6z"/><path d="M5,7h1v1H5V7z"/></g><path d="M5,10h1v1H5V10z" class="Y"/><g fill="#077c22"><path d="M26,9h1v1h-1V9z"/><path d="M25 10h1v1h-1v-1zm0-2h1v1h-1V8z"/><path d="M24 9h1v1h-1V9zM13 9h1v1h-1V9z"/><path d="M14 10h1v1h-1v-1zm0-2h1v1h-1V8z"/><path d="M15,9h1v1h-1V9z"/></g><path d="M9,12h1v1H9V12z" class="P"/><path d="M15,10h1v1h-1V10z" class="Q"/><g class="V"><path d="M32 4h1v1h-1V4zm-5 10h1v1h-1v-1zm0-2h1v1h-1v-1z"/><path d="M26 13h1v1h-1v-1zm2 0h1v1h-1v-1zM7 4h1v1H7V4zm5 10h1v1h-1v-1zm0-2h1v1h-1v-1z"/><path d="M13 13h1v1h-1v-1zm-2 0h1v1h-1v-1z"/></g><path d="M8,12h1v1H8V12z" class="O"/><path d="M18,16h1v1h-1V16z" class="Z"/><path d="M13,16h1v1h-1V16z" class="U"/><path d="M7 15h1v1H7v-1zm2 0h1v1H9v-1z" class="a"/><path d="M14,16h1v1h-1V16z" class="b"/><path d="M8,16h1v1H8V16z" fill="#cec81c"/><path d="M4,15h1v1H4V15z" fill="#ba911c"/><g class="W"><path d="M4,16h1v1H4V16z"/><path d="M5,15h1v1H5V15z"/></g><path d="M18,17h1v1h-1V17z" fill="#84861c"/><path d="M7 17h1v1H7v-1zm2 0h1v1H9v-1z" class="a"/><path d="M14,17h1v1h-1V17z" class="U"/><path d="M17,17h1v1h-1V17z" class="Z"/><path d="M13,17h1v1h-1V17z" class="b"/><path d="M12,17h1v1h-1V17z" class="U"/></svg></g><g class="gotchi-handsDownClosed"><g class="gotchi-primary"><path d="M19 42h1v1h-1zm1-6h1v1h-1z"/><path d="M21 37h1v1h-1zm5 3v4h1v-4zm-5 3h-1v1h2v-1z"/><path d="M24 44h-2v1h4v-1h-1zm1-5h-1v1h2v-1z"/><path d="M23 38h-1v1h2v-1z"/></g><g class="gotchi-secondary"><path d="M19 43h1v1h-1zm5 2h-2v1h4v-1h-1z"/><path d="M27 41v3h1v-3zm-6 3h-1v1h2v-1z"/><path d="M26 44h1v1h-1zm-7-3h-1v2h1v-1z"/></g><g class="gotchi-primary"><path d="M44 42h1v1h-1zm-1-6h1v1h-1z"/><path d="M42 37h1v1h-1z"/><path d="M42 39v-1h-2v1h1zm0 4v1h2v-1h-1z"/><path d="M40 44h-2v1h4v-1h-1z"/><path d="M38 42v-2h-1v4h1v-1z"/><path d="M40 40v-1h-2v1h1z"/></g><g class="gotchi-secondary"><path d="M42 44v1h2v-1h-1zm-5-2v-1h-1v3h1v-1z"/><path d="M40 45h-2v1h4v-1h-1z"/><path d="M37 44h1v1h-1zm7-1h1v1h-1z"/></g></g><g class="gotchi-handsDownOpen"><g class="gotchi-primary"><path d="M56 38v-1h-2v-1h-2v-1h-1v-1h-1v-1h-1v8h1v1h2v1h4v-1h1v-4z"/></g><g class="gotchi-secondary"><path d="M54 38v-1h-2v-1h-1v-1h-1v-1h-1v6h1v1h2v1h4v-4z" /></g><path d="M54,38v-1h-2v-1h-1v-1h-1v-1h-1v5h1v1h2v1h4v-3H54z" fill="#fff"/><g class="gotchi-primary"><path d="M8 38v-1h2v-1h2v-1h1v-1h1v-1h1v8h-1v1h-2v1H8v-1H7v-4z"/></g><g class="gotchi-secondary"><path d="M10 38v-1h2v-1h1v-1h1v-1h1v6h-1v1h-2v1H8v-4z" /></g><path d="M8,38v3h4v-1h2v-1h1v-5h-1v1h-1v1h-1v1h-2v1H8z" fill="#fff"/></g><g class="gotchi-handsUp"><g class="gotchi-secondary"><path d="M50,38h1v1h-1V38z"/><path d="M49 39h1v1h-1v-1zm2-2h1v1h-1v-1z"/><path d="M52,36h2v1h-2V36z"/><path d="M54,35h2v1h-2V35z"/></g><path d="M52,32v1h-2v1h-1v5h1v-1h1v-1h1v-1h2v-1h2v-3H52z" fill="#fff"/><g class="gotchi-primary"><path d="M49,33h1v1h-1V33z"/><path d="M50 32h2v1h-2v-1zm0 7h1v1h-1v-1z"/><path d="M49 40h1v1h-1v-1zm2-2h1v1h-1v-1z"/><path d="M52 37h2v1h-2v-1zm0-6h4v1h-4v-1z"/><path d="M56,32h1v4h-1V32z"/><path d="M54,36h2v1h-2V36z"/></g><g class="gotchi-secondary"><path d="M13,38h1v1h-1V38z"/><path d="M14 39h1v1h-1v-1zm-2-2h1v1h-1v-1z"/><path d="M10,36h2v1h-2V36z"/><path d="M8,35h2v1H8V35z"/></g><path d="M8,32v3h2v1h2v1h1v1h1v1h1v-5h-1v-1h-2v-1H8z" fill="#fff"/><g class="gotchi-primary"><path d="M14,33h1v1h-1V33z"/><path d="M12 32h2v1h-2v-1zm1 7h1v1h-1v-1z"/><path d="M14 40h1v1h-1v-1zm-2-2h1v1h-1v-1z"/><path d="M10 37h2v1h-2v-1zm-2-6h4v1H8v-1z"/><path d="M7,32h1v4H7V32z"/><path d="M8,36h2v1H8V36z"/></g></g><g class="gotchi-wearable wearable-eyes"><svg x="15" y="22"><path d="M34 2h-1-3V1h-1V0H5v1H4v1H1 0v1 1 1h1 3v3h1v1h10V8h1V5h2v3h1v1h10V8h1V5h3 1V4 3 2z" fill="#0448b9"/><g fill="#0060ff"><path d="M15 3h1V2h-1V1H5v1H4v1h1v1H4v1h1v1H4v1h1v1h10V7h1V6h-1V5h1V4h-1V3zm14 0h1V2h-1V1H19v1h-1v1h1v1h-1v1h1v1h-1v1h1v1h10V7h1V6h-1V5h1V4h-1V3z"/><path d="M17 3h-1v1h2V3h-1zM3 3h1v1H3zm27 0h1v1h-1z"/></g><path d="M33 3V2h-1v3h1V4h1V3h-1z" fill="#fdfdff"/><path d="M32 3h1v1h-1z" fill="#ffd200"/><path d="M1 4v1h1V2H1v1H0v1h1z" fill="#fdfdff"/><path d="M1 3h1v1H1zm3-1h1v1H4zm0 2h1v1H4zm0 2h1v1H4zm25-4h1v1h-1zm0 2h1v1h-1zm0 2h1v1h-1zM15 2h1v1h-1zm0 2h1v1h-1zm0 2h1v1h-1zm3-4h1v1h-1zm0 2h1v1h-1zm0 2h1v1h-1z" fill="#ffd200"/><path d="M14 1H6v1H5v5h1v1h8V7h1V2h-1V1zm14 1V1h-8v1h-1v5h1v1h8V7h1V2h-1z" fill="#abfbff"/><path d="M10 1v2H9v2H8v2H7v1h2V7h1V5h1V3h1V1h-2zm14 0v2h-1v2h-1v2h-1v1h2V7h1V5h1V3h1V1h-2z" fill="#d7ffff"/></svg></g><g class="gotchi-wearable wearable-head"><svg x="15" y="1"><path d="M33 13v-1h-1v-1h-1v-1h-1V9h-1V8h-1V7h-1V6h-3V5h1V3h-1V1h-2V0H12v1h-2v2H9v2h1v1H7v1H6v1H5v1H4v1H3v1H2v1H1v1H0v19h3V22h8v-1h2v-1h1v-1h1v1h1v1h2v1h13v10h3V13h-1z"/><g fill="red"><path d="M10 6h14V5H10v1zM7 6h1v1H7z"/><path d="M6 5h1v1H6z"/><path d="M5 4h1v1H5z"/><path d="M4 3h1v1H4z"/><path d="M3 2h1v1H3zm23 4h1v1h-1z"/><path d="M27 5h1v1h-1z"/><path d="M28 4h1v1h-1z"/><path d="M29 3h1v1h-1z"/><path d="M30 2h1v1h-1zm-1 13v-2h-2v2h-2v2h2v2h2v-2h2v-2h-2z"/></g><path d="M27 15v2h2v-2h-2z" fill="#ff0"/></svg></g>"><svg x="12" y="32"><g><g class="gotchi-sleeves gotchi-sleeves-left gotchi-sleeves-up"><path d="M38 0v1h-1v8h1V8h1V7h1V0z" fill="#1ca4b4"/><path d="M38 1v1h-1v6h1V7h1V1z" fill="#20c7db"/><path d="M38,2h1v1h-1V2z" fill="#f1751c"/><path d="M37,5h1v1h-1V5z" fill="#367f2e"/></g><g class="gotchi-sleeves gotchi-sleeves-left gotchi-sleeves-down"><path d="M39 3V2h-1V1h-1v8h1v1h2V3z" fill="#1ca4b4"/><path d="M38 3V2h-1v6h1v1h1V3z" fill="#20c7db"/><path d="M38,7h1v1h-1V7z" fill="#f1751c"/><path d="M37,4h1v1h-1V4z" fill="#367f2e"/></g><g class="gotchi-sleeves gotchi-sleeves-right gotchi-sleeves-up"><path d="M2 1V0H0v7h1v1h1v1h1V1z" fill="#1ca4b4"/><path d="M2 2V1H1v6h1v1h1V2z" fill="#20c7db"/><path d="M1,2h1v1H1V2z" fill="#f1751c"/><path d="M2,5h1v1H2V5z" fill="#367f2e"/></g><g class="gotchi-sleeves gotchi-sleeves-right gotchi-sleeves-down"><path d="M2 1v1H1v1H0v7h2V9h1V1z" fill="#1ca4b4"/><path d="M2 2v1H1v6h1V8h1V2z" fill="#20c7db"/><path d="M1,7h1v1H1V7z" fill="#f1751c"/><path d="M2,4h1v1H2V4z" fill="#367f2e"/></g></g></svg><g class="gotchi-wearable wearable-hand wearable-hand-left"><svg x="1" y="21"><path d="M16 10V7h-1V6h-2V5h-1V4h-1V3h-1V0H6v3H5v1H4v1H3v1H1v1H0v3h1v3H0v4h1v3H0v3h1v1h1v1h1v1h10v-1h1v-1h1v-1h1v-3h-1v-3h1v-4h-1v-3z" fill="#1ca9d7"/><path d="M13 7V6h-1V5h-1V4h-1V3H6v1H5v1H4v1H3v1H1v3h14V7zM1 13h14v4H1z" fill="#40e9ff"/><path d="M2 11h12v2H2zm0 7h12v2H2z" fill="#0dbbff"/><path d="M1 20v3h1v1h1v1h10v-1h1v-1h1v-3z" fill="#40e9ff"/><path d="M6 0h4v3H6z" fill="#1c8dd7"/><path d="M6,0v1h1v2h1V1h2V0H6z" fill="#2e9ddb"/><path d="M5 4v1H4v5h2V4H5zM4 20v5h2v-5H4zm1-7H4v4h1v-4z" fill="#66f4ff"/><path d="M13 7V6h-1V5h-1v5h4V7h-2zm-2 13v5h2v-1h1v-1h1v-3h-4zm0-7v4h4v-4h-4zm-9 7h1v-2H2v2zm0-7h1v-2H2v2z" fill="#00d5e5"/><path d="M3 6v1H2v3h2V6H3zM2 20v4h1v1h1v-5H2zm0-7v4h2v-4H2z" fill="#b3f6ff"/><path d="M1 23h1v-3H1v3zm0-6h1v-4H1v4zM1 7v3h1V7H1z" fill="#fff"/></svg></g><g class="gotchi-wearable wearable-hand wearable-hand-right"><svg x="1" y="31"><g transform="scale(-1, 1) translate(-62, 0)"><path d="M17 4V3h-1V2h-2V1h-2V0H6v1H4v1H2v1H1v1H0v1h1v1h1v1h1v1h1v1h1v1h1v1h1v1h4v-1h1v-1h1V9h1V8h1V7h1V6h1V5h1V4h-1z"/><g fill="red"><path d="M10 10h1v1h-1zm-3 0h1v1H7z"/><path d="M8 9v1h2V9H8z"/></g><path d="M11 8V7H7v1H6v1h2V8h2v1h2V8h-1z" fill="#ff0"/><g fill="#fff"><path d="M6 2h1v1H6z"/><path d="M7 3h1v1H7zM5 3h1v1H5zM3 3h1v1H3z"/><path d="M4 4h1v1H4zm2 0h1v1H6z"/><path d="M5 5h1v1H5zm3-1v1h2V4H8z"/><path d="M10 3h1v1h-1z"/><path d="M11 2h1v1h-1zm2 0h1v1h-1z"/><path d="M14 3h1v1h-1z"/><path d="M15 4v1h-1v1h-1v1h-1v1h2V7h1V6h1V5h1V4h-2z"/><path d="M13 4h1v1h-1z"/><path d="M12 5h1v1h-1z"/><path d="M11 6h1v1h-1zm1-3h1v1h-1z"/><path d="M11 4h1v1h-1z"/><path d="M10 5h1v1h-1zM7 5h1v1H7z"/><path d="M6 6h1v1H6z"/><path d="M5 6H4V5H3V4H1v1h1v1h1v1h1v1h2V7H5V6zM4 2h1v1H4zm4 1h2V2h1V1H7v1h1v1z"/></g></g></svg></g></svg>