<svg xmlns="http://www.w3.org/2000/svg" viewBox="0 0 64 64"><g class="gotchi-bg"><defs fill="#fff"><pattern id="a" patternUnits="userSpaceOnUse" width="4" height="4"><path d="M0 0h1v1H0zm2 2h1v1H2z"/></pattern><pattern id="b" patternUnits="userSpaceOnUse" x="0" y="0" width="2" height="2"><path d="M0 0h1v1H0z"/></pattern><pattern id="c" patternUnits="userSpaceOnUse" x="-2" y="0" width="8" height="1"><path d="M0 0h1v1H0zm2 0h1v1H2zm2 0h1v1H4z"/></pattern><pattern id="d" patternUnits="userSpaceOnUse" x="0" y="0" width="4" height="4"><path d="M0 0h1v1H0zm0 2h1v1H0zm1 0V1h1v1zm1 0h1v1H2zm0-1h1V0H2zm1 2h1v1H3z"/></pattern><pattern id="e" patternUnits="userSpaceOnUse" width="64" height="32"><path d="M4 4h1v1H4zm7 0h1v1h-1zm7 0h1v1h-1zm7 0h1v1h-1zm7 0h1v1h-1zm7 0h1v1h-1zm7 0h1v1h-1zm7 0h1v1h-1zm7 0h1v1h-1z"/><path fill="url(#a)" d="M0 8h64v7H0z"/><path fill="url(#b)" d="M0 16h64v1H0z"/><path fill="url(#c)" d="M0 18h64v1H0z"/><path fill="url(#b)" d="M22 18h15v1H22zM0 20h64v3H0z"/><path fill="url(#d)" d="M0 24h64v8H0z"/></pattern><mask id="f"><path fill="url(#e)" d="M0 0h64v32H0z"/></mask></defs><path fill="#fff" d="M0 0h64v32H0z"/><path fill="#dea8ff" class="gotchi-secondary" mask="url(#f)" d="M0 0h64v32H0z"/><path fill="#dea8ff" class="gotchi-secondary" d="M0 32h64v32H0z"/><path mask="url(#f)" fill="#fff" transform="matrix(1 0 0 -1 0 64)" d="M0 0h64v32H0z"/></g><style>.gotchi-primary{fill:#26A17B;}.gotchi-secondary{fill:#AEDCCE;}.gotchi-cheek{fill:#F696C6;}.gotchi-eyeColor{fill:#0064FF;}.gotchi-primary-mouth{fill:#26A17B;}.gotchi-sleeves-up{display:none;}.gotchi-handsUp{display:none;}.gotchi-handsDownOpen{display:block;}.gotchi-handsDownClosed{display:none;}
  .gotchi-bg {
    display:none;
  }


svg {
  animation-name:down;
  animation-duration:0.5s;
  animation-iteration-count: infinite;
  animation-timing-function: linear;
  animation-timing-function: steps(1);
}

.gotchi-shadow {
  animation: up 0.5s infinite linear steps(2);
   animation-name:up;
   animation-duration:0.5s;
   animation-iteration-count: infinite;
   animation-timing-function: linear;
   animation-timing-function: steps(2);
}

.gotchi-wearable {
  animation-name:down;
  animation-duration:0.5s;
  animation-iteration-count: infinite;
  animation-timing-function: linear;
  animation-timing-function: steps(1);
}




.gotchi-handsDownClosed, .gotchi-handsUp, .gotchi-handsDownOpen, .gotchi-handsDownClosed, .gotchi-body, .gotchi-eyeColor, .gotchi-collateral, .gotchi-cheek, .gotchi-primary-mouth, .gotchi-wearable, .gotchi-sleeves   {
   animation-name:down;
   animation-duration:0.5s;
   animation-iteration-count: infinite;
   animation-timing-function: linear;
   animation-timing-function: steps(2);
}

.wearable-hand {
  animation-name:down !important;
  animation-duration:0.5s;
  animation-iteration-count: infinite;
  animation-timing-function: linear;
  animation-timing-function: steps(2);
}

.wearable-bg {
  animation-name:none !important;
}


@keyframes downHands {
  from {
    --hand_translateY: -4px;
  }
 to {
    --hand_translateY: -3.5px;
  }
}


@keyframes up {
  from {
    transform: translate(0px, 0);
  }
 to {
    transform: translate(0px, -1px);
  }
}


@keyframes down {
 from {
   transform: translate(0px, 0);
    }
 to {
      transform: translate(0px, 1px);
    }
}
</style><g class="gotchi-body"><path d="M47 14v-2h-2v-2h-4V8h-4V6H27v2h-4v2h-4v2h-2v2h-2v41h4v-2h5v2h5v-2h6v2h5v-2h5v2h4V14z" class="gotchi-primary"/><path d="M45 14v-2h-4v-2h-4V8H27v2h-4v2h-4v2h-2v39h2v-2h5v2h5v-2h6v2h5v-2h5v2h2V14z" class="gotchi-secondary"/><path d="M18,49h2v-1h2v1h2v2h5v-2h2v-1h2v1h2v2h5v-2h2v-1h2v1h1V14h-4v-2h-4v-2h-5V9h-5v2h-4v2h-4v2h-1V49z" fill="#fff"/></g><path class="gotchi-cheek" d="M21 32v2h2v-2h-1zm21 0h-1v2h2v-2z"/><g class="gotchi-primary-mouth"><path d="M29 32h-2v2h2v-1z"/><path d="M33 34h-4v2h6v-2h-1z"/><path d="M36 32h-1v2h2v-2z"/></g><g class="gotchi-shadow"><path opacity=".25" d="M25 58H19v1h1v1h24V59h1V58h-1z" fill="#000"/></g>,<g class="gotchi-collateral" fill="#26a17b"><path d="M31 19h2v3h-2zm0-2v1h2v-1h3v-1h-3v-1h2v-2h-6v2h2v1h-3v1z"/><path d="M27 17h1v1h-1z"/><path d="M28 18h3v1h-3zm8-1h1v1h-1z"/><path d="M33 18h3v1h-3z"/></g><g class="gotchi-eyeColor"><path d="M27 23H26H25H24H23H22H21V24V25V26H22H23H24H25H26H27H28H29V25V24V23H28H27ZM23 25H22V24H23H24V25H23ZM28 25H27H26V24H27H28V25Z" class="gotchi-primary" /><rect x="24" y="24" width="2" height="1" /><path d="M42 23H41H40H39H38H37H36H35V24V25V26H36H37H38H39H40H41H42H43V25V24V23H42ZM37 25H36V24H37H38V25H37ZM42 25H41H40V24H41H42V25Z" class="gotchi-primary" /><rect x="38" y="24" width="2" height="1" /></g><g class="gotchi-wearable wearable-body"><svg x="15" y="41"><path d="M0 0v14h4v-2h5v2h5v-2h6v2h5v-2h5v2h4V0z"/><g fill="#4e4066"><path d="M30 3H19v4h-1v1h-1v2h3v2h5v-2h5v2h3V7h-2V6h-1zM4 3v3H3v1H1v5h3v-2h5v2h5v-2h2V3z"/><path d="M1 3h2v3H1zm16 0h1v4h-1zm14 0h2v3h-2z"/></g><g fill="#edeff2"><path d="M17 6h1v1h-1zm-6 4V7H8V6H7V5H6V4H5v1H4v1h1v1H4v1h3v2h1V9h2v1zM2 9H1v3h2v-2H2zm12 0h-1v2h-2v1h3v-2h2V8h-2zm5-3h1v1h-1zm11 4h2v2h-2zM12 5h2v1h-2zm20 0h1v1h-1z"/><path d="M18 8h-1v2h2V7h-1zm11-2h2v1h-2zm-6-1h-1v1h2V4h3V3h-4zm3 1h-1v1h-3v1h2v2h2V7h1V5h-1z"/></g><g fill="#a8aaae"><path d="M2 7H1v2h1v1h1V8H2zm13-3h-2v1h1v1h-2V5h-1V4H9v1H8v2h3v1h2V7h1v1h2V6h-1zM1 5h2v1H1zm7 4h2v1H8zm21-3h1V5h-1V4h1V3h-2v2h-1v2h2zm-3 3h4v1h-4zm0-4h-1V4h-1v2h-2V5h1V3h-3v1h-1v1h2v3h1V7h3V6h1zM4 3h1v1H4z"/><path d="M26 7h1v1h-1zm-3 3v1h1V8h-2v2zm-4-2h1v2h-1zm12-1v1h-1v1h2V8h1V7zm-11 4h2v1h-2z"/></g><path d="M16 2V1h-6v1h6zm8 0V1h-5v1h5zM9 2V1H1v1h8zm24 0V1h-8v1h8z" fill="#edeff2"/><path d="M17,1h1v1h-1V1z" fill="#a8aaae"/></svg></g><g class="gotchi-handsDownClosed"><g class="gotchi-primary"><path d="M19 42h1v1h-1zm1-6h1v1h-1z"/><path d="M21 37h1v1h-1zm5 3v4h1v-4zm-5 3h-1v1h2v-1z"/><path d="M24 44h-2v1h4v-1h-1zm1-5h-1v1h2v-1z"/><path d="M23 38h-1v1h2v-1z"/></g><g class="gotchi-secondary"><path d="M19 43h1v1h-1zm5 2h-2v1h4v-1h-1z"/><path d="M27 41v3h1v-3zm-6 3h-1v1h2v-1z"/><path d="M26 44h1v1h-1zm-7-3h-1v2h1v-1z"/></g><g class="gotchi-primary"><path d="M44 42h1v1h-1zm-1-6h1v1h-1z"/><path d="M42 37h1v1h-1z"/><path d="M42 39v-1h-2v1h1zm0 4v1h2v-1h-1z"/><path d="M40 44h-2v1h4v-1h-1z"/><path d="M38 42v-2h-1v4h1v-1z"/><path d="M40 40v-1h-2v1h1z"/></g><g class="gotchi-secondary"><path d="M42 44v1h2v-1h-1zm-5-2v-1h-1v3h1v-1z"/><path d="M40 45h-2v1h4v-1h-1z"/><path d="M37 44h1v1h-1zm7-1h1v1h-1z"/></g></g><g class="gotchi-handsDownOpen"><g class="gotchi-primary"><path d="M56 38v-1h-2v-1h-2v-1h-1v-1h-1v-1h-1v8h1v1h2v1h4v-1h1v-4z"/></g><g class="gotchi-secondary"><path d="M54 38v-1h-2v-1h-1v-1h-1v-1h-1v6h1v1h2v1h4v-4z" /></g><path d="M54,38v-1h-2v-1h-1v-1h-1v-1h-1v5h1v1h2v1h4v-3H54z" fill="#fff"/><g class="gotchi-primary"><path d="M8 38v-1h2v-1h2v-1h1v-1h1v-1h1v8h-1v1h-2v1H8v-1H7v-4z"/></g><g class="gotchi-secondary"><path d="M10 38v-1h2v-1h1v-1h1v-1h1v6h-1v1h-2v1H8v-4z" /></g><path d="M8,38v3h4v-1h2v-1h1v-5h-1v1h-1v1h-1v1h-2v1H8z" fill="#fff"/></g><g class="gotchi-handsUp"><g class="gotchi-secondary"><path d="M50,38h1v1h-1V38z"/><path d="M49 39h1v1h-1v-1zm2-2h1v1h-1v-1z"/><path d="M52,36h2v1h-2V36z"/><path d="M54,35h2v1h-2V35z"/></g><path d="M52,32v1h-2v1h-1v5h1v-1h1v-1h1v-1h2v-1h2v-3H52z" fill="#fff"/><g class="gotchi-primary"><path d="M49,33h1v1h-1V33z"/><path d="M50 32h2v1h-2v-1zm0 7h1v1h-1v-1z"/><path d="M49 40h1v1h-1v-1zm2-2h1v1h-1v-1z"/><path d="M52 37h2v1h-2v-1zm0-6h4v1h-4v-1z"/><path d="M56,32h1v4h-1V32z"/><path d="M54,36h2v1h-2V36z"/></g><g class="gotchi-secondary"><path d="M13,38h1v1h-1V38z"/><path d="M14 39h1v1h-1v-1zm-2-2h1v1h-1v-1z"/><path d="M10,36h2v1h-2V36z"/><path d="M8,35h2v1H8V35z"/></g><path d="M8,32v3h2v1h2v1h1v1h1v1h1v-5h-1v-1h-2v-1H8z" fill="#fff"/><g class="gotchi-primary"><path d="M14,33h1v1h-1V33z"/><path d="M12 32h2v1h-2v-1zm1 7h1v1h-1v-1z"/><path d="M14 40h1v1h-1v-1zm-2-2h1v1h-1v-1z"/><path d="M10 37h2v1h-2v-1zm-2-6h4v1H8v-1z"/><path d="M7,32h1v4H7V32z"/><path d="M8,36h2v1H8V36z"/></g></g><g class="gotchi-wearable wearable-face"><svg x="21" y="32"><path d="M21 9v1h-1V8h-1V5h-1V2h-1V1h-1V0h-3v1h-1v1h-2V1H9V0H6v1H5v1H4v3H3v3H2v2H1V9H0v2h4v-1h1V9h1V8h1V7h1V6h1V5h1V4h2v1h1v1h1v1h1v1h1v1h1v1h1v1h4V9h-1z" fill="#5c2700"/><g fill="#724422"><path d="M5 5h1V3H5v2z"/><path d="M6 2v1h2V2H6zm10 1v2h1V3h-1z"/><path d="M14 2v1h2V2h-2z"/></g></svg></g><g class="gotchi-wearable wearable-eyes"><svg x="15" y="21"><path d="M6,9h1v1H6V9z"/><path d="M5,8h1v1H5V8z"/><path d="M5,6V2H4v2H2v1h2v3h1V6z"/><path d="M5 1h1v1H5V1zM0 3v1h2V3H0zm9 7H7v1h4v-1H9z"/><path d="M11,9v1h2V9H11z"/><path d="M13,8h1v1h-1V8z"/><path d="M14 7h1v1h-1V7zm0-6h1v1h-1V1z"/><path d="M8 1h6V0H6v1h2zm19 8h1v1h-1V9z"/><path d="M28 8h1v1h-1V8zm0-7h1v1h-1V1z"/><path d="M30,4V2h-1v6h1V5h2V4H30z"/><path d="M32 3v1h2V3h-2zm-7 7h-2v1h4v-1h-2z"/><path d="M22,9h-1v1h2V9H22z"/><path d="M20,8h1v1h-1V8z"/><path d="M19,7h1v1h-1V7z"/><path d="M19,5V2h-1v2h-2V2h-1v5h1V5h2v2h1V5z"/><path d="M19,1h1v1h-1V1z"/><path d="M22 1h6V0h-8v1h2z"/><path d="M14 1H6v1H5v6h1v1h1v1h4V9h2V8h1V7h1V2h-1V1zm14 1V1h-8v1h-1v5h1v1h1v1h2v1h4V9h1V8h1V2h-1z" opacity=".75" fill="#a000dc" enable-background="new"/><g fill="#d778f5"><path d="M11 1h1v1h-1V1zM8 1h1v1H8V1z"/><path d="M10 2h1v1h-1V2zM7 2h1v1H7V2z"/><path d="M9 3h1v1H9V3zM6 3h1v1H6V3z"/><path d="M8,4h1v1H8V4z"/><path d="M7,5h1v1H7V5z"/><path d="M6 6h1v1H6V6zM5 4h1v1H5V4zm17-3h1v1h-1V1zm3 0h1v1h-1V1z"/><path d="M21 2h1v1h-1V2zm3 0h1v1h-1V2z"/><path d="M20 3h1v1h-1V3zm3 0h1v1h-1V3z"/><path d="M22,4h1v1h-1V4z"/><path d="M21,5h1v1h-1V5z"/><path d="M20 6h1v1h-1V6zm-1-2h1v1h-1V4z"/></g></svg></g><g class="gotchi-wearable wearable-head"><svg x="15" y="2"><path d="M32 5V3h-2V2h-2V0H6v2H4v1H2v2H0v9h1v1h1v1h1v1h1v1h1v1h3v1h18v-1h3v-1h1v-1h1v-1h1v-1h1v-1h1V5z"/><path d="M1 14h1v1h1v1h1v1h1v1h3v1h18v-1h3v-1h1v-1h1v-1h1v-1h1v-2H1zm31-8V5h-1V4h-1V3h-2V2h-1V1H7v1H6v1H4v1H3v1H2v1H1v5h32V6z" fill="#4e4066"/><g fill="#a8aaae"><path d="M2 5h2v1H2V5zm16 3V6h-2V4h-2v1h1v1h-2V5h-1V4h-1V2H9v1h1v2H9v2h3v1h2V7h1v1h3z"/><path d="M10 10h1V9H9v2h1v-1zM3 9v1h1V8H3V7H2V6H1v2h1v1h1zm25-2h2V6h1V5h-1V3h-1v2h-1v2zm-1-2h-1V4h-1v2h-2V5h1V3h1V1h-2v2h-2v1h-2v1h3v3h1V7h3V6h1V5zm0 4h4v1h-4V9z"/><path d="M32 6v2h-1v1h2V6h-1zm-5 1h1v1h-1V7zm-3 3v1h1V8h-2v2h1zm-4-2h1v2h-1V8zM4 3h2v1H4V3zm23-1h1v1h-1V2zm-7-1h1v2h-1V1zm1 12h-2v-1h-1v1h-2v2h3v-1h1v1h2v-1h3v-2h-4v1zm9-1h2v1h-2v-1zm-7 5h1v2h1v-3h-2v1zm7-2h1v1h-1v-1z"/><path d="M31 14h1v1h-1v-1zM3 12v1h1v1h2v-2H3zm-2 1h1v1H1v-1zm3 3h3v1H4v-1z"/><path d="M6 14h1v1H6v-1zm5 1H9v4h1v-2h1v-2z"/><path d="M12 12h-1v1H9v-1H7v1h1v1h3v1h1v-3zm-1 6h2v1h-2v-1zm2-3h1v2h-1v-2zm19-2h1v1h-1v-1z"/></g><path d="M13 5h2v1h-2V5zM9 6H8V5H7V4H6v1H4v1h2v1H5v1h3v3h1V9h2v1h1V7H9V6zM3 9H2v2h2v-1H3V9zm22-5h3V3h-1V1h-2v2h-1v2h-1v1h2V4zm6 6h2v1h-2v-1zm-6 0h2V7h1V5h-1v1h-1v1h-3v1h2v2zm-5-2h-5v1h-1v2h3v-1h3V8zm10-2h2v1h-2V6zM18 5h1V3h1V1h-5v1h-1v1h4v2zM8 3h1V2h2v1h1V1H8v2zm11 9h2v1h-2v-1zm1 4h-1v-1h-5v2h3v2h5v-1h-2v-2zM9 12h2v1H9v-1zm-1 1H7v-1H6v2h1v3h2v-2h2v-1H8v-1zm18 0h-1v1h-3v3h1v-1h2v3h1v-4h3v-1h-1v-1h2v-1h-4v1zM2 13h2v1H2v-1zm30-1h1v1h-1v-1z" fill="#edeff2"/></svg></g><g class="gotchi-wearable wearable-hand wearable-hand-left"><svg x="4" y="31"><path d="M7 5V4H6V3H2v1H1v1H0v4h1v1h1v1h4v-1h1V9h1V5z" fill="#33691e"/><path d="M6 5V4H2v1H1v4h1v1h4V9h1V5z" fill="#558b2f"/><path d="M6 5V4H2v1H1v1h2v1h1v1h1v1h2V5z" fill="#689f38"/><g fill="#b8d2a2"><path d="M6,5h1v1H6V5z"/><path d="M5,4h1v1H5V4z"/></g><path d="M8 2V1H7V0H3v1H2v1h1v1h2V2h2v1h1v1h1V2z"/><path d="M4,1h1v1H4V1z" fill="#cacaca"/><path d="M3,1h1v1H3V1z" fill="#9e9e9e"/></svg></g><g class="gotchi-wearable wearable-hand wearable-hand-right"><svg x="4" y="31"><g transform="scale(-1, 1) translate(-56, 0)"><g fill="#bebebc"><path d="M5,0h1v1H4V0H5z"/><path d="M1,3h2V1h1v2h4v1H7v8H6v1H2v-1H1V4H0V3H1z"/></g><g fill="#0f0"><path d="M3 4h1v1H3v1H2V4h1zm1 4v2H3v1H2V8h2z"/><path d="M4 6h1V5h1v3H4V6zm1 4h1v2H4v-1h1v-1z"/></g><g fill="#fff"><path d="M4 6v2H3V6h1zm-1 5h1v1H3v-1z"/><path d="M4 5h1v1H4V5zm0 5h1v1H4v-1z"/><path d="M5 4h1v1H5V4zm0 4h1v2H5V8z"/></g><g fill="#0af"><path d="M3 6v2H2V6h1zm-1 5h1v1H2v-1z"/><path d="M3 5h1v1H3V5zm0 5h1v1H3v-1z"/><path d="M4 4h1v1H4V4zm0 4h1v2H4V8z"/></g></g></svg></g><g class="gotchi-wearable wearable-pet"><svg x="42" y="43"><path d="M19 2V1h-1V0h-5v1h-1v1H8V1H7V0H2v1H1v1H0v2h1v1h1v1H1v3h1v1h1v1H2v1H1v2h1v1H1v2h4v1h3v-1h1v-1h2v1h1v1h3v-1h4v-2h-1v-1h1v-2h-1v-1h-1v-1h1V9h1V6h-1V5h1V4h1V2z"/><path d="M18 3h-1v1h-3V3h-2v1h1v1h5V4h1V3zM6 3v1H3V3H1v1h1v1h5V4h1V3H7z" fill="#fff"/><g fill="#9b00dc"><path d="M17 1h-4v1h5V1zm-7 4h2V4h-1V3H9v1H8v1h1zM4 2h3V1H2v1h1zm5 11v2h2v-2h-1z"/><path d="M16 12v-2H4v2H2v2h2v1H2v1h3v-3h1v3H5v1h3v-4h1v-1h2v1h1v4h3v-1h-1v-3h1v3h3v-1h-2v-1h2v-2h-1z"/></g><path d="M17 6H2v3h16V6h-1zm0 2H3V7h14v1z" fill="#faaff3"/></svg></g></svg>